<?xml version="1.0" encoding="UTF-8"?>
<svg version="1.1" xmlns="http://www.w3.org/2000/svg" width="1024" height="1024">
<path d="M0 0 C0.3806223 8.25587883 -1.05223428 15.98195077 -2.625 24.0625 C-2.76004944 24.76630798 -2.89509888 25.47011597 -3.03424072 26.19525146 C-13.29540615 79.53612683 -13.29540615 79.53612683 -27 100 C-29.66153382 103.25672915 -32.3038219 106.00345271 -35.94140625 108.140625 C-38.1473899 109.06152899 -39.86573022 109.42956409 -42.25 109.5625 C-44.6328125 109.4921875 -44.6328125 109.4921875 -47 109 C-50.27421297 107.17562303 -52.58179924 104.84348761 -55 102 C-63.06234383 91.15522565 -67.62482474 78.94229951 -71.5625 66.125 C-71.75798431 65.49238251 -71.95346863 64.85976501 -72.15487671 64.20797729 C-75.36298142 53.77267053 -77.8169883 43.3728767 -79.56298828 32.60058594 C-80.04056419 29.75860907 -80.57550689 26.93124761 -81.12109375 24.1015625 C-81.30953857 23.11406006 -81.4979834 22.12655762 -81.69213867 21.10913086 C-82.05211511 19.22386258 -82.41532275 17.33920705 -82.7824707 15.45532227 C-83.75795406 10.20624581 -84.17363351 5.3392304 -84 0 C-55.70828234 -4.35970731 -28.26860084 -3.95031984 0 0 Z M-29 19 C-30.91666667 20.08333333 -30.91666667 20.08333333 -32 22 C-31.91666667 24.58333333 -31.91666667 24.58333333 -31 27 C-30.34 27.66 -29.68 28.32 -29 29 C-26.5 29.41666667 -26.5 29.41666667 -24 29 C-23.34 28.01 -22.68 27.02 -22 26 C-22.16507646 23.42459787 -22.16507646 23.42459787 -23 21 C-23.66 20.34 -24.32 19.68 -25 19 C-26.32 19 -27.64 19 -29 19 Z M-62 21 C-63.91256712 22.88077873 -63.91256712 22.88077873 -65 25 C-63.84826645 27.46800047 -62.95216435 29.04783565 -61 31 C-58.39719432 30.67958603 -58.39719432 30.67958603 -56 30 C-55.61250787 27.67504723 -55.28241883 25.3400417 -55 23 C-55.33 22.34 -55.66 21.68 -56 21 C-58.87413125 20.66602213 -58.87413125 20.66602213 -62 21 Z M-45 21 C-45.33 22.98 -45.66 24.96 -46 27 C-44.68 27.33 -43.36 27.66 -42 28 C-40.89363605 25.60931266 -40.89363605 25.60931266 -40 23 C-40.33 22.34 -40.66 21.68 -41 21 C-42.32 21 -43.64 21 -45 21 Z " fill="#000000" transform="translate(562,101)"/>
<path d="M0 0 C2.54126242 7.0607087 4.18036708 14.06757206 5.5625 21.4375 C5.77793457 22.57896484 5.99336914 23.72042969 6.21533203 24.89648438 C10.98600043 50.79127943 10.98600043 50.79127943 9.48046875 61.08203125 C9 63 9 63 7.625 66 C6 68 6 68 3 70 C-0.09042442 70.63393321 -2.8980119 70.54920445 -6 70 C-9.14430243 68.50992897 -11.46960521 66.36498029 -14 64 C-14.89460938 63.18402344 -15.78921875 62.36804688 -16.7109375 61.52734375 C-24.60681345 54.09747981 -31.07678333 45.72973323 -37.49560547 37.02148438 C-38.90042546 35.13380026 -40.33352535 33.27368523 -41.78515625 31.421875 C-42.20514893 30.88111328 -42.6251416 30.34035156 -43.05786133 29.78320312 C-44.16576912 28.35832888 -45.27802062 26.93683498 -46.390625 25.515625 C-48.06306359 22.90142487 -48.48529633 21.01900759 -49 18 C-37.04113148 12.56535864 -25.09169923 7.16143371 -12.6875 2.8125 C-11.45435059 2.37635376 -11.45435059 2.37635376 -10.19628906 1.93139648 C-6.47885984 0.66487699 -4.01283369 0 0 0 Z " fill="#000000" transform="translate(438,110)"/>
<path d="M0 0 C6.82180908 1.36297103 13.17130333 3.32922465 19.6875 5.75 C20.6463208 6.10271973 21.6051416 6.45543945 22.59301758 6.81884766 C42.08865054 14.05910036 42.08865054 14.05910036 48 18 C47.78125 20.12109375 47.78125 20.12109375 47 23 C45.55833777 25.13102849 44.11907305 27.07828583 42.5 29.0625 C41.58374116 30.21543572 40.66839568 31.36909782 39.75390625 32.5234375 C39.29129395 33.10319336 38.82868164 33.68294922 38.35205078 34.28027344 C36.31670453 36.86911038 34.38344762 39.53112706 32.4375 42.1875 C28.26219564 47.76435644 23.78601566 52.94120625 19 58 C18.22269531 58.83015625 17.44539062 59.6603125 16.64453125 60.515625 C13.58259078 63.69552967 10.64273792 66.55811768 7 69.0625 C3.57295412 70.13345184 0.63552567 70.47781984 -2.9453125 70.36328125 C-3.62335937 70.24339844 -4.30140625 70.12351562 -5 70 C-7.5 68.125 -7.5 68.125 -9 66 C-10 64 -10 64 -10.21411133 61.00561523 C-10.36255906 50.60054123 -9.11638439 40.83585214 -7.17407227 30.62475586 C-6.68390284 28.0435576 -6.21638396 25.45898802 -5.75195312 22.87304688 C-5.44400962 21.19767696 -5.13480966 19.52253739 -4.82421875 17.84765625 C-4.68658615 17.0912233 -4.54895355 16.33479034 -4.40715027 15.55543518 C-3.3785014 10.19977543 -1.83369013 5.13362355 0 0 Z " fill="#000000" transform="translate(602,110)"/>
<path d="M0 0 C2.41819916 0.72545975 4.79032341 1.50230666 7.16015625 2.37109375 C9.72687997 3.2484664 12.31604202 3.65590282 15 4 C12.44873554 6.62630165 10.07858014 8.94191902 7.125 11.125 C2.60278499 14.85466187 -0.2419321 19.8999231 -3 25 C-5.87210123 31.47334272 -7.63620387 38.06736968 -9 45 C-13.31759936 46.14191334 -17.23841604 45.84760235 -21.625 45.4375 C-30.25685693 44.78220196 -37.72091564 45.72380683 -45.9375 48.5625 C-54.16567775 52.09446819 -61.29281712 57.92944753 -67.4375 64.375 C-71.89199393 69.68149693 -74.49403645 75.57312912 -76.7109375 82.08984375 C-78.26798883 87.6072213 -78.64735194 93.29885635 -79 99 C-79.0825 100.299375 -79.165 101.59875 -79.25 102.9375 C-79.11545996 109.52996206 -77.35130565 115.92475593 -74.7109375 121.93359375 C-71.59703219 127.93660372 -68.12161339 133.52427391 -63 138 C-55.40080843 143.26809854 -55.40080843 143.26809854 -47 147 C-49.15438209 154.16901889 -52.13936951 160.48357934 -55.6875 167.0625 C-56.19861328 168.02349609 -56.70972656 168.98449219 -57.23632812 169.97460938 C-58.4847496 172.31977495 -59.73936683 174.66138312 -61 177 C-64 177 -64 177 -65.91015625 176.3359375 C-76.39078859 171.65674412 -84.68719007 165.91434466 -93 158 C-93.66644531 157.443125 -94.33289063 156.88625 -95.01953125 156.3125 C-102.66303272 149.58746408 -107.59984738 140.05668012 -112 131 C-116.77628852 119.81857903 -117.96055827 106.74532954 -118.3125 94.6875 C-118.00770215 79.29520878 -114.80885167 63.52303728 -108.40234375 49.50390625 C-102.2134215 37.53489716 -94.32961126 26.73483089 -84 18 C-72.51050335 8.93577045 -59.41331109 2.45207284 -45.3125 -1.4375 C-30.50660526 -5.07859602 -14.64366928 -3.71982863 0 0 Z M-23 4 C-23.99 4.66 -24.98 5.32 -26 6 C-26.25030977 8.58380177 -26.25030977 8.58380177 -26 11 C-23.93313333 12.19565425 -23.93313333 12.19565425 -21.0625 12.1875 C-20.051875 12.125625 -19.04125 12.06375 -18 12 C-17.01 11.34 -16.02 10.68 -15 10 C-15.33 8.35 -15.66 6.7 -16 5 C-19.36060068 4.31730524 -19.36060068 4.31730524 -23 4 Z " fill="#000000" transform="translate(292,127)"/>
<path d="M0 0 C10.91384858 4.90609075 20.95509902 10.86965357 29.9375 18.8125 C30.53691406 19.32941406 31.13632812 19.84632813 31.75390625 20.37890625 C42.14027265 29.99412712 49.39282918 42.93998147 54.9375 55.8125 C60.34102259 68.83884911 61.1296916 83.5631646 60.99560547 97.55053711 C60.67481742 110.03835758 57.12878174 121.52667805 51.9375 132.8125 C49.37872893 137.79402773 46.30125203 142.34435154 42.9375 146.8125 C42.51984375 147.37163086 42.1021875 147.93076172 41.671875 148.50683594 C34.78562887 157.55540483 26.91786957 165.19980557 17.02832031 170.91601562 C13.08292472 173.06876514 9.08161968 175.0669991 4.9375 176.8125 C4.2775 176.8125 3.6175 176.8125 2.9375 176.8125 C2.61998779 176.11165283 2.30247559 175.41080566 1.9753418 174.6887207 C0.52833474 171.49939364 -0.92328346 168.31218599 -2.375 165.125 C-2.87451172 164.02220703 -3.37402344 162.91941406 -3.88867188 161.78320312 C-4.37529297 160.71650391 -4.86191406 159.64980469 -5.36328125 158.55078125 C-6.03097534 157.08185425 -6.03097534 157.08185425 -6.7121582 155.58325195 C-8.02028856 152.7763177 -8.02028856 152.7763177 -9.73120117 150.14135742 C-10.17052979 149.37283447 -10.6098584 148.60431152 -11.0625 147.8125 C-11.0625 146.8225 -11.0625 145.8325 -11.0625 144.8125 C-10.33546875 144.51859375 -9.6084375 144.2246875 -8.859375 143.921875 C-1.12847937 140.47270618 4.65038788 136.2639017 10.359375 130.046875 C13.54218579 126.2795595 15.47010986 122.21821253 17.16796875 117.6015625 C20.2114679 106.57080924 19.7317619 94.17217446 18.51171875 82.8671875 C17.220691 76.29324254 14.83074438 70.88518149 11.015625 65.37890625 C5.55877253 58.6398986 -1.02163687 53.26759578 -8.57421875 49.02734375 C-15.81344309 45.49296578 -22.87251812 44.41881683 -30.8671875 43.91796875 C-34.60260256 43.79467265 -38.30794281 43.85958481 -42.0390625 44.0703125 C-42.70679688 43.98523438 -43.37453125 43.90015625 -44.0625 43.8125 C-45.60620117 42.56396484 -45.60620117 42.56396484 -47.0625 40.8125 C-47.8269043 38.81054688 -47.8269043 38.81054688 -48.38671875 36.53125 C-48.60666504 35.69416504 -48.82661133 34.85708008 -49.05322266 33.99462891 C-49.39812744 32.6669751 -49.39812744 32.6669751 -49.75 31.3125 C-51.86852471 23.68717346 -54.19241006 18.1039032 -59.2265625 11.94140625 C-59.83242188 11.23886719 -60.43828125 10.53632813 -61.0625 9.8125 C-62.5505802 7.84640521 -63.81337929 5.94641455 -65.0625 3.8125 C-65.0625 2.4925 -65.0625 1.1725 -65.0625 -0.1875 C-63.81514433 -0.8384259 -62.56448168 -1.48301669 -61.3125 -2.125 C-60.61640625 -2.48464844 -59.9203125 -2.84429687 -59.203125 -3.21484375 C-42.7277098 -10.70093569 -15.93134587 -6.27534446 0 0 Z M-38.0625 0.8125 C-40.77376384 2.23871684 -40.77376384 2.23871684 -43.0625 3.8125 C-42.7325 5.4625 -42.4025 7.1125 -42.0625 8.8125 C-39.37720658 10.12607916 -39.37720658 10.12607916 -36.0625 10.8125 C-32.7274267 9.56306659 -32.7274267 9.56306659 -30.0625 7.8125 C-30.33284634 5.37532742 -30.33284634 5.37532742 -31.0625 2.8125 C-32.0525 2.1525 -33.0425 1.4925 -34.0625 0.8125 C-35.3825 0.8125 -36.7025 0.8125 -38.0625 0.8125 Z " fill="#000000" transform="translate(801.0625,129.1875)"/>
<path d="M0 0 C2.15625 0.8515625 2.15625 0.8515625 3.8125 2.078125 C5.15625 3.5390625 5.15625 3.5390625 7.15625 6.8515625 C8.15625 10.2265625 8.15625 10.2265625 8.15625 13.8515625 C7.64031323 16.85229821 6.71938799 19.23770592 5.15625 21.8515625 C1.10373634 26.78459614 -4.23843324 29.87563593 -9.84375 32.7890625 C-13.59766816 34.63670962 -17.16484606 36.3075502 -21.40625 36.4765625 C-24.84375 35.8515625 -24.84375 35.8515625 -27.71875 34.6015625 C-29.84375 32.8515625 -29.84375 32.8515625 -30.94921875 31.0703125 C-32.35540169 27.58248757 -32.29904204 24.38859847 -32.21484375 20.6640625 C-31.84082323 17.82938069 -31.2696991 16.05976431 -29.84375 13.6015625 C-26.77191496 9.37561995 -23.08102541 5.89432979 -18.84375 2.8515625 C-16.50435436 1.53474805 -14.41542472 0.72496146 -11.84375 -0.1484375 C-11.06 -0.4165625 -10.27625 -0.6846875 -9.46875 -0.9609375 C-6.12258918 -1.19994899 -3.25098791 -0.81274698 0 0 Z " fill="#000000" transform="translate(392.84375,193.1484375)"/>
<path d="M0 0 C2.98497292 0.55073301 5.37592896 1.4743773 8 3 C12.52279961 6.28124677 16.13875363 9.59068776 19.0625 14.375 C20.26778965 19.0354533 20.71630023 23.22204131 20 28 C18.25 31.5 18.25 31.5 16 34 C13.96254104 35.22332787 12.24040503 35.94912777 9.9140625 36.44140625 C5.66324744 36.66627872 2.46399003 36.17233915 -1.5546875 34.6796875 C-6.78849762 32.31830982 -11.83623992 29.73496205 -15.75 25.4375 C-17.25320257 23.3561426 -18.30060053 21.38572935 -19.4375 19.0625 C-20.00892497 15.95140848 -20.1744968 13.16906509 -19.6796875 10.03125 C-18.63177603 6.89956054 -16.76512864 4.76857154 -14.5703125 2.34765625 C-10.55687608 -1.09671082 -4.95941376 -0.38490972 0 0 Z " fill="#000000" transform="translate(657,193)"/>
<path d="M0 0 C2 0.25 2 0.25 4 1 C4.66 1.66 5.32 2.32 6 3 C6.5 5.6875 6.5 5.6875 6 9 C4.2926153 11.63917508 2.35634094 13.91885217 0 16 C-0.99 16.33 -1.98 16.66 -3 17 C-3 16.34 -3 15.68 -3 15 C-3.99 14.67 -4.98 14.34 -6 14 C-6 13.01 -6 12.02 -6 11 C-6.66 11 -7.32 11 -8 11 C-7.8125 9.3125 -7.8125 9.3125 -7 7 C-4.5625 4.375 -4.5625 4.375 -2 2 C-1.34 1.34 -0.68 0.68 0 0 Z " fill="#000000" transform="translate(763,206)"/>
<path d="M0 0 C4.75311741 0.30998592 8.16335056 1.4102256 12.4375 3.5625 C13.96348161 4.36528913 15.48615887 5.17454538 17 6 C16.67 6.61875 16.34 7.2375 16 7.875 C15.67 8.57625 15.34 9.2775 15 10 C15 10.66 15 11.32 15 12 C15.66 12.33 16.32 12.66 17 13 C16.01 13.33 15.02 13.66 14 14 C13.67 14.66 13.34 15.32 13 16 C10.5 15.875 10.5 15.875 7 15 C4.05406567 13.28699374 1.47864155 11.33748884 -1 9 C-1.556875 8.13375 -2.11375 7.2675 -2.6875 6.375 C-2.790625 5.59125 -2.89375 4.8075 -3 4 C-1.625 1.6875 -1.625 1.6875 0 0 Z " fill="#000000" transform="translate(266,208)"/>
<path d="M0 0 C0.33 0 0.66 0 1 0 C1 3.63 1 7.26 1 11 C0.01 10.34 -0.98 9.68 -2 9 C-2.3125 5.5 -2.3125 5.5 -2 2 C-1.34 1.34 -0.68 0.68 0 0 Z " fill="#000000" transform="translate(255,227)"/>
<path d="M0 0 C0.66 0.66 1.32 1.32 2 2 C1.01 2.495 1.01 2.495 0 3 C0 3.99 0 4.98 0 6 C-1.32 5.34 -2.64 4.68 -4 4 C-4 3.01 -4 2.02 -4 1 C-2.125 0.375 -2.125 0.375 0 0 Z " fill="#000000" transform="translate(264,232)"/>
<path d="M0 0 C9.3398614 2.52564012 17.41371314 7.04603897 24.91796875 13.078125 C32.4056153 19.42387965 37.54280983 26.55517292 42.05078125 35.25 C46.64088215 44.78224494 49.24622351 54.61646575 49.828125 65.19140625 C49.98102835 77.81867444 48.02611263 89.24907789 43.2265625 101.0222168 C40.33874818 107.59972959 36.54532641 113.24813551 31.625 118.5 C24.01055746 125.25126687 15.78001937 130.48699477 6.1015625 133.65234375 C-5.10901908 136.95441233 -15.7170898 138.39849986 -27.375 137.5 C-36.80402896 136.23817088 -45.67662549 133.08076611 -54.0546875 128.60546875 C-62.84072116 123.03408976 -69.64496486 115.77722061 -75.65625 107.30078125 C-79.61480561 100.85013495 -82.06996671 94.8623808 -83.5625 87.4375 C-83.72685547 86.67373047 -83.89121094 85.90996094 -84.06054688 85.12304688 C-86.55978284 73.29467907 -86.68749522 63.1662904 -84.35498047 51.37011719 C-82.07616538 40.91932959 -77.5210959 31.64285029 -71.3125 22.9375 C-70.35849261 21.77063613 -69.37961772 20.62358561 -68.375 19.5 C-67.84390625 18.90058594 -67.3128125 18.30117188 -66.765625 17.68359375 C-60.98055765 11.54027681 -54.61595025 7.31218913 -46.83203125 4.04516602 C-31.79805663 -2.06332392 -15.9452466 -3.81637745 0 0 Z M-31.58984375 16.3984375 C-34.30970918 18.07677897 -36.24893964 20.02900264 -38.1796875 22.56640625 C-39.66938455 24.97621031 -40.72796806 27.33776646 -41.25 30.1328125 C-41.52938102 35.42359061 -40.79864391 40.40920192 -39.375 45.5 C-38.23650292 48.0023217 -37.07042906 49.83861039 -35.265625 51.90625 C-32.40425213 54.31831639 -29.56499811 55.74775589 -26.0234375 56.93359375 C-22.43627758 57.70075922 -19.3803152 57.80393705 -15.7578125 57.23046875 C-12.3532361 56.18677074 -9.91186938 54.59987483 -7.19921875 52.31640625 C-4.1986717 49.32870951 -1.51688962 46.16122309 0.625 42.5 C1.66160564 39.25112624 1.96196074 36.06598762 1.8984375 32.6484375 C1.50244934 29.53710195 0.47681413 27.12135312 -1.0390625 24.390625 C-3.31767639 21.16591997 -6.07448431 18.6545986 -9.375 16.5 C-11.9852236 15.25033413 -14.10913332 14.5306005 -16.98828125 14.19921875 C-22.13267399 14.17688419 -26.82903946 14.30642083 -31.58984375 16.3984375 Z M-18.375 118.5 C-18.375 118.83 -18.375 119.16 -18.375 119.5 C-16.395 119.5 -14.415 119.5 -12.375 119.5 C-12.375 119.17 -12.375 118.84 -12.375 118.5 C-14.355 118.5 -16.335 118.5 -18.375 118.5 Z " fill="#000000" transform="translate(395.375,273.5)"/>
<path d="M0 0 C10.49920219 3.10976494 19.6585365 8.27722208 28.12768555 15.20776367 C28.68713867 15.76850586 29.2465918 16.32924805 29.82299805 16.90698242 C29.82299805 17.56698242 29.82299805 18.22698242 29.82299805 18.90698242 C30.48299805 18.90698242 31.14299805 18.90698242 31.82299805 18.90698242 C38.66071177 26.60444796 43.25951437 34.81970403 46.75268555 44.47729492 C50.09290297 55.13417908 50.37429703 66.43365924 49.19799805 77.46948242 C47.77265677 88.78434029 44.23629531 99.53468636 38.4753418 109.41479492 C33.96486204 116.21783531 28.60232978 121.69890632 21.79174805 126.20776367 C13.89188868 130.72939371 4.83378717 135.31665975 -4.23950195 136.69604492 C-16.71013002 137.59154215 -29.17103752 137.81521252 -41.17700195 133.90698242 C-50.08326058 130.4465183 -57.10855277 125.25850491 -64.17700195 118.90698242 C-64.83571289 118.33077148 -65.49442383 117.75456055 -66.1730957 117.16088867 C-71.21873114 112.47485309 -75.00886784 107.00682274 -78.17700195 100.90698242 C-79.84824852 96.64063248 -81.08450356 92.35383518 -82.17700195 87.90698242 C-82.40258789 87.0484668 -82.62817383 86.18995117 -82.8605957 85.30541992 C-85.2034133 74.86776359 -85.36268191 63.40365588 -83.30200195 52.91479492 C-81.08825156 43.21650574 -77.87868857 34.14275198 -72.17700195 25.90698242 C-66.31429045 18.28196083 -59.56453966 11.71041811 -51.17700195 6.90698242 C-34.54389368 -1.85602843 -18.29518159 -4.87856542 0 0 Z M-36.17700195 16.90698242 C-38.87658095 18.63011795 -41.0769334 20.48820428 -43.17700195 22.90698242 C-44.97236049 25.97646638 -45.96502325 28.48672511 -46.48950195 32.00073242 C-46.73165557 36.29895915 -46.05297268 40.02160907 -44.67700195 44.09448242 C-43.47731849 46.84518523 -42.38383323 48.69760814 -40.27075195 50.83666992 C-37.72265881 52.82380226 -35.3948925 54.49504886 -32.31762695 55.53588867 C-27.27689215 56.40973868 -22.25624922 56.44706965 -17.17700195 55.90698242 C-12.960667 54.31179133 -10.103558 51.78345436 -6.86450195 48.71948242 C-4.4070012 44.62364784 -3.00979719 40.61022768 -2.17700195 35.90698242 C-2.04418353 32.4281613 -2.31853456 29.28245285 -3.17700195 25.90698242 C-4.94159596 22.50383683 -6.75699792 20.31563499 -9.48950195 17.65698242 C-12.72322746 15.5513007 -15.39344567 14.67651929 -19.17700195 13.90698242 C-25.39058686 13.40588686 -30.5204172 14.20563315 -36.17700195 16.90698242 Z " fill="#000000" transform="translate(679.177001953125,274.093017578125)"/>
<path d="M0 0 C1.8125 0.0625 1.8125 0.0625 4 1 C5.215157 3.36746105 6.13868775 5.50708135 7 8 C7.42539063 9.21816406 7.85078125 10.43632812 8.2890625 11.69140625 C8.50353027 12.31901855 8.71799805 12.94663086 8.93896484 13.59326172 C14.29834467 28.97716124 23.84745172 41.27857444 34.75 53.25 C41.0809096 60.24905057 41.0809096 60.24905057 43 64 C42.875 66.75 42.875 66.75 42 69 C41.34 69.66 40.68 70.32 40 71 C36.62336562 71.63900451 33.39652036 71.43369548 30 71 C20.48602393 68.25066552 12.02118897 62.9311144 4.40332031 56.69238281 C-1.84492633 51.38156217 -7.39583231 45.82267753 -12 39 C-12.54140625 38.33742188 -13.0828125 37.67484375 -13.640625 36.9921875 C-14.08921875 36.33476562 -14.5378125 35.67734375 -15 35 C-15.17876739 31.72259781 -15.03978561 30.04647465 -14 27 C-12.16953057 23.75980885 -10.17398504 20.66211125 -8.14453125 17.54296875 C-4.68545424 12.05023304 -2.3822515 6.0187945 0 0 Z " fill="#000000" transform="translate(235,309)"/>
<path d="M0 0 C0.99 0.33 1.98 0.66 3 1 C4.31860352 3.3449707 4.31860352 3.3449707 5.62890625 6.42578125 C6.10650391 7.53244141 6.58410156 8.63910156 7.07617188 9.77929688 C7.56666016 10.94525391 8.05714844 12.11121094 8.5625 13.3125 C9.54235198 15.60052465 10.52279662 17.8882956 11.50390625 20.17578125 C11.93517822 21.19583252 12.3664502 22.21588379 12.81079102 23.2668457 C13.93039103 25.93990455 13.93039103 25.93990455 15.16577148 28.18188477 C15.44106689 28.78186279 15.7163623 29.38184082 16 30 C15.84375 32.9140625 15.84375 32.9140625 15 36 C10.74287938 43.5368411 4.91119612 49.84622232 -2 55 C-10.97908608 61.31138659 -20.30484058 67.15082099 -31 70 C-34.36970836 70.54129903 -36.55894608 70.49950783 -40 70 C-40.70125 69.46375 -41.4025 68.9275 -42.125 68.375 C-43 66 -43 66 -43.08203125 63.3828125 C-42 60 -42 60 -40.38769531 58.05224609 C-38.16073701 55.81216333 -35.87557616 53.65100911 -33.5625 51.5 C-18.01554492 36.47941386 -8.72800512 19.60495089 0 0 Z " fill="#000000" transform="translate(797,310)"/>
<path d="M0 0 C7.32910264 3.08794805 13.94557538 7.14086877 19.77246094 12.58276367 C22.93260089 15.98649774 25.22123139 19.25688578 26.99389648 23.6015625 C28.03145366 27.00394433 28.03021565 30.31960037 27.95996094 33.85229492 C27.94255859 34.97595459 27.94255859 34.97595459 27.92480469 36.12231445 C27.78142323 40.99622967 27.42143079 45.57347977 25.76855469 50.19995117 C23.30770879 55.06479174 19.98001416 59.2976075 16.58496094 63.53979492 C15.61623047 64.80436523 15.61623047 64.80436523 14.62792969 66.09448242 C8.4670701 73.46866618 0.53123383 78.62661787 -7.99780273 82.85351562 C-16.15529987 86.61385959 -25.48110265 89.24051172 -34.49658203 89.62963867 C-36.13633791 89.63293053 -37.77609474 89.59148305 -39.41503906 89.53979492 C-34.77334444 99.76346313 -29.59081368 108.32434723 -21.59082031 116.37573242 C-17.14964346 120.17144539 -11.90516378 122.25506299 -6.40356445 124.05102539 C0.58532983 126.07886431 7.35249554 126.25908929 14.58496094 125.53979492 C21.42078981 124.47752496 27.58798177 122.59614853 33.49902344 118.95776367 C34.18738281 118.48983398 34.87574219 118.0219043 35.58496094 117.53979492 C36.27332031 117.08217773 36.96167969 116.62456055 37.67089844 116.15307617 C41.16859848 113.49294798 43.35757187 110.92508084 45.60449219 107.11791992 C48.76086014 101.07858882 51.38060379 95.69560528 51.82324219 88.86010742 C51.85364058 87.46178148 51.8782152 86.06331882 51.89746094 84.66479492 C51.92646484 83.96999023 51.95546875 83.27518555 51.98535156 82.55932617 C52.0559334 80.16751986 52.0559334 80.16751986 51.58496094 76.53979492 C49.66758591 73.2271115 49.66758591 73.2271115 47.58496094 70.53979492 C47.70996094 68.28979492 47.70996094 68.28979492 48.58496094 66.53979492 C49.24496094 65.87979492 49.90496094 65.21979492 50.58496094 64.53979492 C53.95996094 64.10229492 53.95996094 64.10229492 57.58496094 64.53979492 C59.95996094 66.85229492 59.95996094 66.85229492 61.58496094 69.53979492 C64.30992151 77.71467664 63.22922285 88.03582661 62.58496094 96.53979492 C61.60007854 102.51606133 58.9170701 107.36208603 55.78808594 112.47729492 C51.54824581 118.71833959 46.71881691 124.12109299 40.58496094 128.53979492 C33.10409536 133.1050943 25.28853512 136.33930193 16.58496094 137.53979492 C7.35989225 138.2643445 -1.82665931 138.16371369 -10.75097656 135.50854492 C-19.48511665 132.33249398 -26.52243617 127.7753906 -33.41503906 121.53979492 C-37.88658852 117.05846089 -41.22002282 111.98263232 -44.41503906 106.53979492 C-44.69476562 107.09666992 -44.97449219 107.65354492 -45.26269531 108.22729492 C-48.99450954 115.3309413 -53.07138545 120.86841029 -59.36816406 125.89916992 C-66.6064755 131.26249707 -73.89623987 134.83823887 -82.62988281 137.11791992 C-91.96502894 138.53193925 -102.63442546 138.49144039 -111.85253906 136.47729492 C-120.78308051 133.76916176 -128.78289439 129.22751869 -135.85253906 123.16479492 C-142.01278181 117.27412519 -146.34443156 110.63826053 -149.60253906 102.77807617 C-152.02446456 96.10613718 -152.80506301 89.70637674 -152.66894531 82.61010742 C-152.26678289 77.74703568 -151.389468 73.0190964 -149.41503906 68.53979492 C-147.49707031 66.25463867 -147.49707031 66.25463867 -145.41503906 64.53979492 C-142.35253906 64.10229492 -142.35253906 64.10229492 -139.41503906 64.53979492 C-138.48691406 65.09666992 -138.48691406 65.09666992 -137.54003906 65.66479492 C-136.41503906 67.53979492 -136.41503906 67.53979492 -135.97753906 70.41479492 C-136.19410156 71.96166992 -136.19410156 71.96166992 -136.41503906 73.53979492 C-137.07503906 74.30163086 -137.73503906 75.0634668 -138.41503906 75.84838867 C-139.07503906 76.73655273 -139.73503906 77.6247168 -140.41503906 78.53979492 C-141.28383541 83.75941395 -140.84638496 89.05866481 -139.94238281 94.25854492 C-138.26652363 100.60071859 -135.42012607 106.34542444 -131.41503906 111.53979492 C-125.96119513 116.91005504 -119.43457228 120.58905518 -112.41503906 123.53979492 C-105.33080632 126.10477574 -97.89365802 126.15324149 -90.42822266 125.73510742 C-83.13633445 125.02767223 -76.45397701 122.32803889 -70.10253906 118.78979492 C-64.32542614 115.04450291 -59.63366557 110.680384 -55.65722656 105.05151367 C-52.67398858 100.30283292 -50.84341057 95.99297024 -49.41503906 90.53979492 C-49.9924585 90.46051758 -50.56987793 90.38124023 -51.16479492 90.29956055 C-64.64184319 88.36683143 -76.65823081 85.60727795 -88.41503906 78.53979492 C-91.62151623 76.39331021 -94.53383361 74.09894946 -97.41503906 71.53979492 C-98.87490234 70.38737305 -98.87490234 70.38737305 -100.36425781 69.21166992 C-105.48378843 64.94365716 -109.12127341 59.28370041 -112.41503906 53.53979492 C-115.46205421 47.25075566 -116.66820658 41.32344249 -116.91503906 34.35229492 C-116.76668056 30.2567011 -116.44630684 26.627543 -114.97753906 22.78979492 C-112.01580707 17.26601103 -108.08763915 12.69024199 -103.41503906 8.53979492 C-93.00088728 1.0374085 -81.65355605 -2.36629463 -69.27832031 -5.17114258 C-66.66192779 -5.68620986 -64.05696387 -6.10106842 -61.41503906 -6.46020508 C-60.63128906 -6.58266602 -59.84753906 -6.70512695 -59.04003906 -6.83129883 C-40.03232061 -9.23696319 -17.87983612 -6.98638041 0 0 Z M-62.41503906 3.53979492 C-63.55713724 5.32208429 -63.55713724 5.32208429 -64.41503906 7.53979492 C-64.39441406 8.24104492 -64.37378906 8.94229492 -64.35253906 9.66479492 C-64.04316406 10.28354492 -63.73378906 10.90229492 -63.41503906 11.53979492 C-60.78985266 12.99823181 -58.71322131 13.51205704 -55.72753906 13.78979492 C-54.96441406 13.70729492 -54.20128906 13.62479492 -53.41503906 13.53979492 C-52.75503906 12.87979492 -52.09503906 12.21979492 -51.41503906 11.53979492 C-51.58615157 8.51293961 -51.58615157 8.51293961 -52.41503906 5.53979492 C-53.07503906 4.87979492 -53.73503906 4.21979492 -54.41503906 3.53979492 C-57.10343291 3.26987586 -59.70645843 3.45242135 -62.41503906 3.53979492 Z M-38.41503906 4.53979492 C-38.74503906 5.19979492 -39.07503906 5.85979492 -39.41503906 6.53979492 C-39.45503106 8.53939504 -39.45850705 10.54026734 -39.41503906 12.53979492 C-36.71323033 13.35033754 -34.18703906 14.09457886 -31.41503906 14.53979492 C-30.61066406 14.33354492 -29.80628906 14.12729492 -28.97753906 13.91479492 C-27.30788546 12.61925085 -27.30788546 12.61925085 -26.47753906 10.66479492 C-26.27478821 8.46783807 -26.27478821 8.46783807 -27.29003906 6.28979492 C-28.34191406 5.42354492 -28.34191406 5.42354492 -29.41503906 4.53979492 C-32.44249558 4.19686179 -35.38155786 4.31085294 -38.41503906 4.53979492 Z " fill="#000000" transform="translate(564.4150390625,377.460205078125)"/>
<path d="M0 0 C2.17194516 3.25791774 2.79541984 5.6727551 3.69140625 9.46875 C3.91666237 10.42207214 3.91666237 10.42207214 4.14646912 11.39465332 C4.46294822 12.74220055 4.77627378 14.09049175 5.08666992 15.43945312 C5.5549574 17.46733734 6.03745307 19.49144911 6.52148438 21.515625 C8.27799179 28.99241232 9.59608741 36.32062448 10 44 C9.22599854 44.13051758 8.45199707 44.26103516 7.65454102 44.39550781 C4.89083652 44.85630006 4.89083652 44.85630006 2.52734375 46.671875 C1.67269531 47.35765625 0.81804688 48.0434375 -0.0625 48.75 C-8.36724945 54.9729959 -17.28051262 58.14190986 -27.3359375 60.44140625 C-35.60927485 62.17613827 -44.32626114 63.11668377 -52.69921875 61.46875 C-56.0598258 60.44668108 -58.69826676 59.20115549 -61.625 57.25 C-62.07875 56.5075 -62.5325 55.765 -63 55 C-63.125 51.5625 -63.125 51.5625 -62 48 C-57.61268796 43.7004342 -53.14061596 41.53362333 -47.5 39.25 C-33.57377113 33.29965063 -22.85789459 25.44934863 -12 15 C-10.4899994 13.59245501 -8.9706228 12.19482384 -7.4375 10.8125 C-6.83808594 10.26207031 -6.23867188 9.71164062 -5.62109375 9.14453125 C-5.08613281 8.76683594 -4.55117188 8.38914062 -4 8 C-3.01 8 -2.02 8 -1 8 C-0.67 5.36 -0.34 2.72 0 0 Z " fill="#000000" transform="translate(832,372)"/>
<path d="M0 0 C10 10 10 10 11.37890625 11.5546875 C19.33444425 20.20807971 29.73071879 25.66850401 40.375 30.3125 C41.84030055 30.93558535 43.30642286 31.5567424 44.7734375 32.17578125 C55.59826048 36.7681683 55.59826048 36.7681683 59.0625 39.8125 C59.371875 40.534375 59.68125 41.25625 60 42 C59.9375 45.5625 59.9375 45.5625 59 49 C57.05024378 50.7918985 55.41427355 51.85492668 52.9140625 52.73046875 C42.70281816 54.76923255 32.29218992 54.71073615 22.06640625 52.75 C12.70789729 50.46103985 4.40226254 47.0616403 -3.6953125 41.84375 C-6.23302099 39.81358321 -8.01261862 37.55886015 -10 35 C-10.66 34.67 -11.32 34.34 -12 34 C-11.62714347 25.03280043 -9.84634338 16.49977022 -7 8 C-5.45899425 5.08295255 -4.35064029 3.29053053 -1.8125 1.1875 C-1.214375 0.795625 -0.61625 0.40375 0 0 Z " fill="#000000" transform="translate(207,380)"/>
<path d="M0 0 C1 2 1 2 1.5625 5.125 C1.2840625 7.043125 1.2840625 7.043125 1 9 C-2.75909039 14.18874444 -8.08932699 18.24323836 -13.484375 21.62890625 C-23.91698968 27.31500525 -35.41243592 29.85282198 -47 32 C-47.99 32 -48.98 32 -50 32 C-51.61960379 29.75257227 -53.00626922 27.58220473 -54.375 25.1875 C-54.77203125 24.50768066 -55.1690625 23.82786133 -55.578125 23.12744141 C-59.64883402 16.05524963 -63.47231425 9.06892793 -65 1 C-64.29327148 1.06928711 -63.58654297 1.13857422 -62.85839844 1.20996094 C-54.98057386 1.93079086 -47.15946683 2.22769836 -39.25 2.25 C-37.4105481 2.25592163 -37.4105481 2.25592163 -35.53393555 2.26196289 C-27.43218025 2.21002513 -20.04790469 1.40091823 -12.171875 -0.390625 C-7.75930994 -1.23835917 -4.36487447 -0.99549769 0 0 Z " fill="#000000" transform="translate(271,471)"/>
<path d="M0 0 C2.77734375 -0.01171875 2.77734375 -0.01171875 5.9375 0.3125 C6.97777344 0.41175781 8.01804687 0.51101563 9.08984375 0.61328125 C12 1 12 1 13.72338867 1.51367188 C19.02249469 2.64566321 24.6518396 2.18587541 30.05908203 2.18530273 C32.33255588 2.18745973 34.6055201 2.20554482 36.87890625 2.22460938 C46.11444749 2.25902237 54.88161107 1.60843059 64 0 C63.48199633 4.5284224 62.6882953 8.28567948 60.78515625 12.42578125 C60.34623047 13.38677734 59.90730469 14.34777344 59.45507812 15.33789062 C58.76575195 16.81032227 58.76575195 16.81032227 58.0625 18.3125 C57.60681641 19.31345703 57.15113281 20.31441406 56.68164062 21.34570312 C53.28148496 28.71851504 53.28148496 28.71851504 51 31 C42.49944312 32.30544266 33.71587397 30.39500354 25.48046875 28.32421875 C17.70894874 26.16241684 10.68350514 22.75618916 4.20703125 17.91015625 C1.31949829 15.44496515 -1.25899331 13.21487931 -3.24609375 9.95703125 C-3.49488281 9.31121094 -3.74367188 8.66539062 -4 8 C-3.8125 4.875 -3.8125 4.875 -3 2 C-2.01 1.34 -1.02 0.68 0 0 Z " fill="#000000" transform="translate(767,471)"/>
<path d="M0 0 C2.8125 0.0625 2.8125 0.0625 5 1 C5.66 1.99 6.32 2.98 7 4 C7 6.625 7 6.625 6 10 C2.3412576 17.05614606 -2.84824413 22.08304504 -9 27 C-11.64217841 29.10295832 -13.7698082 30.63310069 -17.00390625 31.59765625 C-19.125 32 -19.125 32 -23 32 C-25.4375 30.25 -25.4375 30.25 -27 28 C-27.33 27.01 -27.66 26.02 -28 25 C-25.40538252 20.9388596 -21.84652147 18.05306285 -18.2109375 14.96484375 C-15.83096765 12.8497822 -13.64481802 10.60645337 -11.4375 8.3125 C-7.82580965 4.67594431 -4.73558537 2.00351689 0 0 Z " fill="#000000" transform="translate(286,514)"/>
<path d="M0 0 C2.3125 -0.375 2.3125 -0.375 5 0 C8.77782759 2.55003362 11.78636897 5.78636897 15 9 C21.20155886 14.74968705 21.20155886 14.74968705 27.75 20.08984375 C28.4925 20.72019531 29.235 21.35054687 30 22 C30.495 23.485 30.495 23.485 31 25 C29.625 27 29.625 27 28 29 C27.67 29.99 27.34 30.98 27 32 C25.2890625 32.86328125 25.2890625 32.86328125 23 33 C16.37359111 30.30862865 10.66118509 26.01817103 5.5 21.125 C1.95544326 17.37496171 -0.69682638 13.81999421 -2.51953125 8.9765625 C-3 7 -3 7 -2.875 4.0625 C-2 2 -2 2 0 0 Z " fill="#000000" transform="translate(749,514)"/>
<path d="M0 0 C2.43443114 0.75761404 4.85167347 1.57236193 7.25 2.4375 C7.92047363 2.67887695 8.59094727 2.92025391 9.28173828 3.16894531 C16.42284858 5.81256938 22.9541961 8.72569412 28.8125 13.6875 C34.39001207 19.22751619 38.59923623 25.32568903 41.53125 32.62890625 C44.43514306 41.08130926 45.68837297 48.50853483 45.25 57.4375 C44.45752888 66.01883013 42.43307309 73.86857628 38.25 81.4375 C30.40217497 93.26775488 20.88268457 101.50634411 9.203125 109.421875 C7.42881235 110.63291379 5.67880901 111.88263504 3.984375 113.203125 C3.41203125 113.61046875 2.8396875 114.0178125 2.25 114.4375 C1.59 114.4375 0.93 114.4375 0.25 114.4375 C-0.08 113.4475 -0.41 112.4575 -0.75 111.4375 C-2.47385506 110.14429876 -2.47385506 110.14429876 -4.625 108.9375 C-13.61285061 103.18413066 -21.01609074 94.65360125 -27.75 86.4375 C-28.21019531 85.73882813 -28.67039062 85.04015625 -29.14453125 84.3203125 C-29.67433594 83.69898438 -30.20414063 83.07765625 -30.75 82.4375 C-32.96365624 81.43041457 -32.96365624 81.43041457 -35.4375 80.75 C-38.29763164 79.68033959 -40.4613193 78.68834661 -42.77490234 76.67797852 C-48.14226165 70.62868341 -51.97222189 64.22450105 -55.6875 57.0625 C-56.28868652 55.92868896 -56.88987305 54.79487793 -57.50927734 53.62670898 C-61.56373643 45.91585115 -65.41413586 38.11836357 -68.90991211 30.13720703 C-69.78014026 28.20108588 -70.75862499 26.31447569 -71.75 24.4375 C-73.80721357 22.45629494 -73.80721357 22.45629494 -75.75 21.4375 C-66.10163831 12.68733414 -53.57047129 6.27741394 -41.31298828 2.01025391 C-27.94743485 -2.37084587 -13.75828662 -3.43223781 0 0 Z M-9.75 10.4375 C-11.97743787 11.85727909 -11.97743787 11.85727909 -13.75 13.4375 C-13.40213292 15.41286745 -13.40213292 15.41286745 -12.75 17.4375 C-12.09 17.7675 -11.43 18.0975 -10.75 18.4375 C-8.75039988 18.477492 -6.74952758 18.48096799 -4.75 18.4375 C-4.0621764 16.08382287 -4.0621764 16.08382287 -3.75 13.4375 C-4.41 12.4475 -5.07 11.4575 -5.75 10.4375 C-7.07 10.4375 -8.39 10.4375 -9.75 10.4375 Z " fill="#000000" transform="translate(859.75,561.5625)"/>
<path d="M0 0 C2.43945312 0.15283203 2.43945312 0.15283203 5 1 C7.01367188 2.13232422 7.01367188 2.13232422 8.96875 3.5546875 C9.69860107 4.08175293 10.42845215 4.60881836 11.18041992 5.15185547 C11.94588135 5.72049316 12.71134277 6.28913086 13.5 6.875 C14.29446533 7.45781738 15.08893066 8.04063477 15.9074707 8.64111328 C22.87011872 13.7998248 29.54573672 19.22020255 36 25 C36.67160156 25.59941406 37.34320312 26.19882812 38.03515625 26.81640625 C43.33354213 31.82513094 48.27626233 37.73517097 52 44 C52.83984375 47.7578125 52.83984375 47.7578125 53 51 C51.6875 52.875 51.6875 52.875 50 54 C48 55 48 55 44.75390625 55.17578125 C34.52820429 54.69695025 24.83356962 49.10482511 15.8125 44.625 C9.0227321 41.20975994 2.45147583 37.70488632 -3.78125 33.33984375 C-6.41621225 31.74866056 -9.06027389 30.88276258 -12 30 C-11.43874899 23.77521605 -9.47610251 18.51399324 -7.125 12.75 C-6.77308594 11.8528125 -6.42117188 10.955625 -6.05859375 10.03125 C-5.71183594 9.17015625 -5.36507812 8.3090625 -5.0078125 7.421875 C-4.53819092 6.25543457 -4.53819092 6.25543457 -4.05908203 5.06542969 C-3 3 -3 3 -1.68701172 1.16113281 C-1.13029785 0.77795898 -0.57358398 0.39478516 0 0 Z " fill="#000000" transform="translate(751,622)"/>
<path d="M0 0 C0.5625 1.625 0.5625 1.625 1 4 C0.566875 5.36125 0.566875 5.36125 0.125 6.75 C0.08375 7.8225 0.0425 8.895 0 10 C2.38297112 14.33607294 6.12495907 17.32284414 9.98828125 20.3125 C12.94147932 22.46694659 15.94676866 24.54252561 18.96435547 26.60546875 C21.89291765 28.61169892 24.80212303 30.6449707 27.70751953 32.68457031 C29.15209215 33.69864954 30.59951626 34.70868378 32.05029297 35.71386719 C36.57391434 38.87834448 41.0303882 42.14779824 45 46 C46 48 46 48 46.375 50.875 C46.189375 52.421875 46.189375 52.421875 46 54 C43.90234375 56.1640625 43.90234375 56.1640625 41 58 C32.72853046 59.37018253 24.14657387 58.05619849 16.08862305 55.99511719 C8.25079922 53.73843903 1.12395236 49.90301645 -6 46 C-6.66 47.32 -7.32 48.64 -8 50 C-8.33 49.34 -8.66 48.68 -9 48 C-10.93125966 48.3574765 -10.93125966 48.3574765 -13 49 C-13.66 49.66 -14.32 50.32 -15 51 C-14.75237476 38.66376086 -12.47987145 25.59435117 -7.44140625 14.26171875 C-6.03863094 11.45266994 -4.55459794 8.7269177 -3 6 C-1.99062145 4.00471683 -0.98828719 2.00581366 0 0 Z " fill="#000000" transform="translate(349,630)"/>
<path d="M0 0 C2.53591435 3.80387153 3.74620428 7.68628669 5.1875 12 C5.47302734 12.81984375 5.75855469 13.6396875 6.05273438 14.484375 C6.31763672 15.27328125 6.58253906 16.0621875 6.85546875 16.875 C7.09934326 17.59429688 7.34321777 18.31359375 7.59448242 19.0546875 C7.72830322 19.69664062 7.86212402 20.33859375 8 21 C7.67 21.99 7.34 22.98 7 24 C6.01249341 21.31531083 5.03487645 18.62766735 4.0625 15.9375 C3.78470703 15.18533203 3.50691406 14.43316406 3.22070312 13.65820312 C1.57587412 9.08042602 0.5078157 4.84031927 0 0 Z " fill="#000000" transform="translate(693,640)"/>
<path d="M0 0 C0.66 0.33 1.32 0.66 2 1 C2.4921875 2.828125 2.4921875 2.828125 2.875 5.25 C3.63800514 9.53882727 4.7662077 13.54892488 6.125 17.6875 C8.5075188 25.49483083 8.5075188 25.49483083 8.875 27.9375 C8.58625 28.948125 8.2975 29.95875 8 31 C2.27106812 36.15348114 -5.50830778 38.56016816 -12.69140625 40.96484375 C-13.78324219 41.30644531 -14.87507812 41.64804687 -16 42 C-16.79277344 42.24878906 -17.58554687 42.49757813 -18.40234375 42.75390625 C-24.98900214 44.50789536 -32.27019412 44.95907862 -39 44 C-41.8671875 42.1796875 -41.8671875 42.1796875 -44 40 C-44.28875 38.9275 -44.5775 37.855 -44.875 36.75 C-44.441875 34.89375 -44.441875 34.89375 -44 33 C-39.14513446 26.87300391 -31.81528936 22.70103157 -25.38793945 18.3684082 C-18.25071386 13.55109342 -11.3966342 8.37993877 -4.55541992 3.15405273 C-3.07217944 2.05355395 -1.53672727 1.02448485 0 0 Z " fill="#000000" transform="translate(688,644)"/>
<path d="M0 0 C3.5625 -0.0625 3.5625 -0.0625 7 1 C9.171875 2.80078125 9.171875 2.80078125 11 6 C11.56073286 10.07074519 11.58629872 14.14585789 11.6875 18.25 C11.90660258 22.54679412 12.19548836 26.76960964 13 31 C14.6660113 34.45085233 14.6660113 34.45085233 17.1875 36.6875 C19.55930708 38.49002235 19.55930708 38.49002235 22 40 C23.36924492 41.17008203 24.72511866 42.35612744 26.0625 43.5625 C27.5165625 44.7690625 27.5165625 44.7690625 29 46 C28.82082031 44.91460938 28.64164062 43.82921875 28.45703125 42.7109375 C28.24119498 41.26577289 28.02640657 39.8204515 27.8125 38.375 C27.63170898 37.30572266 27.63170898 37.30572266 27.44726562 36.21484375 C27.14688504 34.10248995 26.94401213 32.1338182 27 30 C28.32421875 26.5390625 28.32421875 26.5390625 30 24 C32 23 32 23 34.875 22.6875 C35.90625 22.790625 36.9375 22.89375 38 23 C40.3125 24.875 40.3125 24.875 42 27 C43 29 43 29 43.16796875 31.21484375 C43.22406024 39.03399735 42.48315661 46.55053016 40 54 C43.05071111 60.99010762 48.23025338 67.1410307 52.8515625 73.140625 C55.02367575 76.03151028 57.02191562 78.97469447 59 82 C59.23783203 80.78763672 59.23783203 80.78763672 59.48046875 79.55078125 C61.37878929 70.85626341 61.37878929 70.85626341 64.3125 66.8125 C67 65 67 65 70.1875 64.0625 C71.115625 64.041875 72.04375 64.02125 73 64 C73.66 64.66 74.32 65.32 75 66 C75.69515336 69.72976513 75.54610168 73.25596393 75 77 C73.05814801 81.96184879 70.51448728 86.55104185 67.71484375 91.078125 C67.47894531 91.71234375 67.24304688 92.3465625 67 93 C67.37717271 95.1349687 67.37717271 95.1349687 68.4375 97.3125 C68.82035156 98.19679688 69.20320313 99.08109375 69.59765625 99.9921875 C70.58551017 102.11098281 71.59543164 104.21955879 72.62109375 106.3203125 C80.2913202 122.06799573 86.07513739 139.39249902 88.08203125 156.84375 C88 159 88 159 87.01171875 161.28125 C86.67785156 161.8484375 86.34398437 162.415625 86 163 C85.34 162.67 84.68 162.34 84 162 C83.22781505 159.83524862 82.55820221 157.63372545 81.93359375 155.421875 C81.53134441 154.02782653 81.12848757 152.63395324 80.72509766 151.24023438 C80.51524231 150.50635498 80.30538696 149.77247559 80.08917236 149.01635742 C76.91851346 137.98957966 73.60755149 127.07734031 69.125 116.5 C68.76849365 115.63600586 68.4119873 114.77201172 68.04467773 113.88183594 C67.70251221 113.10614258 67.36034668 112.33044922 67.0078125 111.53125 C66.71535645 110.86673828 66.42290039 110.20222656 66.12158203 109.51757812 C65.56639893 108.76637695 65.56639893 108.76637695 65 108 C63.06117995 107.09668739 63.06117995 107.09668739 61 107 C59.8553125 107.69996094 59.8553125 107.69996094 58.6875 108.4140625 C56 110 56 110 52.625 110.3984375 C50.830625 110.38683594 50.830625 110.38683594 49 110.375 C47.80375 110.38273438 46.6075 110.39046875 45.375 110.3984375 C42 110 42 110 39.09375 108.6328125 C38.4028125 108.09398437 37.711875 107.55515625 37 107 C36.5 104.5 36.5 104.5 37 102 C38.3125 100.25 38.3125 100.25 40 99 C43.61867559 97.7937748 46.92506251 97.89183082 50.6875 97.9375 C51.38939453 97.94201172 52.09128906 97.94652344 52.81445312 97.95117188 C54.54300538 97.96293073 56.27151365 97.98086546 58 98 C54.18392964 90.88208153 50.21454137 83.88972898 46 77 C44.9275 77.639375 43.855 78.27875 42.75 78.9375 C40.17576472 80.47214026 37.95463381 81.45831713 35 82 C33.17011626 82.13993229 31.33497702 82.21975313 29.5 82.25 C28.5615625 82.27578125 27.623125 82.3015625 26.65625 82.328125 C24 82 24 82 21.69921875 80.6640625 C21.13847656 80.11492187 20.57773438 79.56578125 20 79 C19.773125 78.05125 19.54625 77.1025 19.3125 76.125 C19.539375 75.09375 19.76625 74.0625 20 73 C22.49308451 70.50691549 23.85383154 69.33148426 27 68 C30.66976762 67.3309807 34.27362613 67.07412317 38 67 C33.93726795 62.16077308 29.68776132 57.49466657 25.3125 52.9375 C24.84932373 52.43629639 24.38614746 51.93509277 23.90893555 51.41870117 C22.42513892 49.84036917 22.42513892 49.84036917 20 48 C19.31550781 48.01160156 18.63101563 48.02320313 17.92578125 48.03515625 C15.82605397 49.08714943 13.85818997 50.2412964 11.875 51.5 C8.50785046 53.40823631 5.6559257 54.48986205 1.8125 55 C-1.57289916 55.18954023 -3.21330921 54.92381814 -6.5 53.75 C-9 52 -9 52 -11 49 C-11.04125 48.195625 -11.0825 47.39125 -11.125 46.5625 C-10.75375 45.716875 -10.3825 44.87125 -10 44 C-5.20334565 40.52450851 0.33569651 39.34920975 6 38 C-2.08471149 32.44849811 -10.01262827 27.01788383 -19 23 C-19.29648438 23.79921875 -19.59296875 24.5984375 -19.8984375 25.421875 C-20.26195312 26.27265625 -20.62546875 27.1234375 -21 28 C-22.625 29.25 -22.625 29.25 -25 30 C-28.76268623 30.82906646 -31.5947719 31.25612532 -35.37890625 30.56640625 C-37.72789803 29.88144489 -39.82192417 29.11466234 -42 28 C-44.625 25.5625 -44.625 25.5625 -46 23 C-45.67 21.68 -45.34 20.36 -45 19 C-39.06 19 -33.12 19 -27 19 C-33.86762041 17.35564018 -39.03226441 16.87617168 -46 18 C-46.66 16.02 -47.32 14.04 -48 12 C-46.1875 9.4375 -46.1875 9.4375 -44.80859375 8.05859375 C-44.21175781 7.70925781 -43.61492187 7.35992188 -43 7 C-36.91193305 6.4693444 -31.13328603 8.04956011 -25.421875 10.01464844 C-21.07622952 11.78269533 -17.12980877 14.1993745 -13.125 16.625 C-11.46233997 17.61953591 -9.7983347 18.61182726 -8.1328125 19.6015625 C-7.40980957 20.03807129 -6.68680664 20.47458008 -5.94189453 20.92431641 C-3.8899622 22.13838511 -3.8899622 22.13838511 -1 23 C-1.433125 21.948125 -1.433125 21.948125 -1.875 20.875 C-5.2944664 12.13636364 -5.2944664 12.13636364 -5.5625 7.5625 C-5.2840625 5.7990625 -5.2840625 5.7990625 -5 4 C-4.319375 3.154375 -3.63875 2.30875 -2.9375 1.4375 C-1.968125 0.963125 -0.99875 0.48875 0 0 Z " fill="#000000" transform="translate(157,647)"/>
<path d="M0 0 C16.32242447 2.00296705 29.51377382 6.08098566 43.99609375 14.1484375 C51.36734849 18.69196773 58.36996424 24.38743723 64 31 C66 34.125 66 34.125 67 37 C66.875 39.75 66.875 39.75 66 42 C65.01 42.66 64.02 43.32 63 44 C59.31621007 44.58006508 55.58232516 44.3120183 51.93237305 43.59228516 C43.15262333 41.10184215 35.07650768 36.99490987 26.875 33.0625 C25.35056008 32.33856136 23.82582227 31.61524963 22.30078125 30.89257812 C16.11235333 27.95352963 9.94121529 25.0039801 3.86404419 21.83958435 C1.93033165 20.96862067 0.06822412 20.45214578 -2 20 C-2.22731216 13.06697907 -1.42002108 6.7831364 0 0 Z " fill="#000000" transform="translate(730,693)"/>
<path d="M0 0 C1.98 0.99 1.98 0.99 4 2 C4 4.97 4 7.94 4 11 C3.67 11 3.34 11 3 11 C2.86722656 10.37351562 2.73445312 9.74703125 2.59765625 9.1015625 C2.42105469 8.28429687 2.24445312 7.46703125 2.0625 6.625 C1.80146484 5.40683594 1.80146484 5.40683594 1.53515625 4.1640625 C1.07669307 1.970537 1.07669307 1.970537 0 0 Z " fill="#000000" transform="translate(902,708)"/>
<path d="M0 0 C2.4375 1.25 2.4375 1.25 4.4375 3.25 C4.875 6.625 4.875 6.625 4.4375 10.25 C2.2080435 12.4794565 0.23897786 13.84926107 -2.5625 15.25 C-4.87256744 15.3730891 -7.18668636 15.4255634 -9.5 15.4375 C-10.74652344 15.45167969 -11.99304688 15.46585938 -13.27734375 15.48046875 C-14.36144531 15.40441406 -15.44554687 15.32835937 -16.5625 15.25 C-17.5525 14.59 -18.5425 13.93 -19.5625 13.25 C-22.88915417 13.18284587 -22.88915417 13.18284587 -26.5625 14.25 C-29.408002 15.74317717 -31.96630318 17.55003507 -34.5625 19.4375 C-35.57183594 20.14229492 -35.57183594 20.14229492 -36.6015625 20.86132812 C-45.4185216 27.03035766 -45.4185216 27.03035766 -52.4375 35.0625 C-54.71929979 38.27776335 -57.20162742 40.91243352 -60.0625 43.625 C-64.54454332 47.97811822 -67.74559639 52.68247287 -70.5625 58.25 C-70.5625 58.58 -70.5625 58.91 -70.5625 59.25 C-69.67046875 59.20359375 -68.7784375 59.1571875 -67.859375 59.109375 C-66.68890625 59.07328125 -65.5184375 59.0371875 -64.3125 59 C-63.15234375 58.95359375 -61.9921875 58.9071875 -60.796875 58.859375 C-59.19585938 59.05273438 -59.19585938 59.05273438 -57.5625 59.25 C-55.1875 61.03125 -55.1875 61.03125 -53.5625 63.25 C-52.8125 67 -52.8125 67 -52.5625 70.25 C-54.23828125 71.7265625 -54.23828125 71.7265625 -56.5625 73.25 C-61.16375602 73.98909939 -65.76719035 73.69882741 -70.28125 72.5703125 C-72.40982067 71.86303427 -74.4911203 71.10923899 -76.5625 70.25 C-76.78164063 70.76046875 -77.00078125 71.2709375 -77.2265625 71.796875 C-78.3150369 74.29240168 -79.43431839 76.77215327 -80.5625 79.25 C-81.04460938 80.31734375 -81.52671875 81.3846875 -82.0234375 82.484375 C-82.53132812 83.56203125 -83.03921875 84.6396875 -83.5625 85.75 C-84.036875 86.7709375 -84.51125 87.791875 -85 88.84375 C-85.515625 89.6378125 -86.03125 90.431875 -86.5625 91.25 C-88.6875 92.15625 -88.6875 92.15625 -90.5625 92.25 C-90.8925 91.92 -91.2225 91.59 -91.5625 91.25 C-91.15624849 84.8370298 -89.39004314 79.45439751 -87.0625 73.5 C-86.42531313 71.83921976 -85.78983207 70.17778381 -85.15625 68.515625 C-84.87458984 67.79149414 -84.59292969 67.06736328 -84.30273438 66.32128906 C-83.58558806 64.31460394 -83.04180075 62.32502155 -82.5625 60.25 C-84.2125 59.92 -85.8625 59.59 -87.5625 59.25 C-87.5625 58.59 -87.5625 57.93 -87.5625 57.25 C-88.160625 57.023125 -88.75875 56.79625 -89.375 56.5625 C-91.5625 55.25 -91.5625 55.25 -93.3125 53 C-94.5625 50.25 -94.5625 50.25 -95 47.25 C-94.5625 44.25 -94.5625 44.25 -93 41.3125 C-92.195625 40.631875 -91.39125 39.95125 -90.5625 39.25 C-89.4075 39.146875 -88.2525 39.04375 -87.0625 38.9375 C-85.9075 39.370625 -84.7525 39.80375 -83.5625 40.25 C-81.08852565 43.59060609 -79.86621449 47.33885653 -78.5625 51.25 C-77.9025 51.58 -77.2425 51.91 -76.5625 52.25 C-76.24345703 51.21552734 -76.24345703 51.21552734 -75.91796875 50.16015625 C-73.86113975 45.74419772 -70.58094199 42.52353843 -67.28710938 38.97851562 C-65.60084508 37.1374244 -65.60084508 37.1374244 -63.5625 34.25 C-63.72303667 32.17972231 -63.72303667 32.17972231 -64.5625 30.25 C-65.88505312 28.57476605 -67.21955519 26.90893182 -68.5625 25.25 C-70.375 22.375 -70.375 22.375 -71.5625 19.25 C-71.25 15.375 -71.25 15.375 -70.5625 12.25 C-68.5825 11.59 -66.6025 10.93 -64.5625 10.25 C-62.60399994 12.07793339 -60.84676975 13.81611459 -59.375 16.0625 C-58.25697034 19.07257985 -57.92928776 22.07117279 -57.5625 25.25 C-54.34422837 23.81081786 -52.01891614 22.00385131 -49.375 19.6875 C-38.78053827 11.08047792 -24.7348297 4.03400602 -11.59375 0.4375 C-7.35060644 -0.47500399 -4.27912897 -0.90086926 0 0 Z " fill="#000000" transform="translate(950.5625,708.75)"/>
<path d="M0 0 C0.33 0 0.66 0 1 0 C2.32594359 5.96674616 2.0884587 11.92583615 2 18 C1.67 18 1.34 18 1 18 C0.67 12.06 0.34 6.12 0 0 Z " fill="#000000" transform="translate(709,712)"/>
<path d="M0 0 C0.33 0 0.66 0 1 0 C1.05816623 3.41659491 1.09365195 6.83306205 1.125 10.25 C1.15013672 11.70212891 1.15013672 11.70212891 1.17578125 13.18359375 C1.18222656 14.11816406 1.18867188 15.05273438 1.1953125 16.015625 C1.20578613 16.87446289 1.21625977 17.73330078 1.22705078 18.61816406 C1 21 1 21 -0.01220703 23.31152344 C-0.50116455 24.14731934 -0.50116455 24.14731934 -1 25 C-1.99 24.67 -2.98 24.34 -4 24 C-3.34 23.67 -2.68 23.34 -2 23 C-1.53001139 20.67375983 -1.53001139 20.67375983 -1.3671875 17.87109375 C-1.28339844 16.83662109 -1.19960938 15.80214844 -1.11328125 14.73632812 C-1.03464844 13.64771484 -0.95601563 12.55910156 -0.875 11.4375 C-0.78863281 10.34501953 -0.70226562 9.25253906 -0.61328125 8.12695312 C-0.40039046 5.41850919 -0.19636763 2.70968393 0 0 Z " fill="#000000" transform="translate(328,713)"/>
<path d="M0 0 C1.14855469 0.53109375 2.29710937 1.0621875 3.48046875 1.609375 C14.37129275 6.58995631 24.9158119 10.78990335 36.703125 13.171875 C38.23996948 13.48668823 38.23996948 13.48668823 39.80786133 13.80786133 C41.85354351 14.21942341 43.90289007 14.61327393 45.95581055 14.98706055 C52.87184363 16.35762124 52.87184363 16.35762124 56.01733398 18.14868164 C57.6796875 19.4375 57.6796875 19.4375 60 22 C60.1875 25.5625 60.1875 25.5625 59 29 C56.52020419 31.34765749 54.3334474 32.85828485 51.1875 34.1953125 C33.40599489 39.38158482 16.24473362 39.40305509 -2 37 C-2.96201859 33.51489014 -2.96173105 30.80508356 -2.625 27.1875 C-2.07068358 20.89814063 -1.65513358 14.61510888 -1.28125 8.3125 C-1.03918599 5.46152387 -0.63317991 2.78599162 0 0 Z " fill="#000000" transform="translate(334,715)"/>
<path d="M0 0 C0.99 0.33 1.98 0.66 3 1 C3.73570866 12.35093354 4.13947228 23.62526092 4 35 C-11.31665644 37.6299204 -28.36051419 36.89652342 -43.40625 33.15234375 C-47.89434611 31.80700426 -51.41913502 30.41330778 -55.25 27.6875 C-57 25 -57 25 -57.6875 21.4375 C-57.460625 20.303125 -57.23375 19.16875 -57 18 C-54.93051741 16.15930443 -53.48295356 15.12002306 -51 14 C-47.25073997 12.99514002 -43.4519117 12.38462977 -39.625 11.75 C-26.31903799 9.33916368 -12.17922145 6.08961072 0 0 Z " fill="#000000" transform="translate(701,718)"/>
<path d="M0 0 C8.2851715 -0.3234991 16.10109649 0.11681935 23.90625 3.1171875 C34.1409512 7.88440358 43.17000775 14.70924852 50.875 22.9375 C57.07281838 30.18155561 62.11553619 38.29880106 66 47 C66 47.99 66 48.98 66 50 C62.67653022 49.35796606 60.3657267 48.08497058 57.5 46.3125 C53.74870216 44.14069599 50.3207632 42.7515365 46.11328125 41.83203125 C35.2369859 39.41227023 35.2369859 39.41227023 31 37 C27.29738871 32.99593309 25.62369041 27.86407973 23.75927734 22.82617188 C22.38651184 19.52447221 20.23399849 17.13396442 17.77734375 14.59375 C14.68139805 11.81760528 11.40151847 9.38556399 8 7 C6.49556152 5.90188849 4.99542274 4.79785798 3.5 3.6875 C2.8296875 3.19636719 2.159375 2.70523438 1.46875 2.19921875 C0.9840625 1.80347656 0.499375 1.40773438 0 1 C0 0.67 0 0.34 0 0 Z " fill="#000000" transform="translate(712,738)"/>
<path d="M0 0 C3.375 2.125 3.375 2.125 6 5 C6.5 8.625 6.5 8.625 6 12 C5.01 13.485 5.01 13.485 4 15 C1.3125 15.875 1.3125 15.875 -2 16 C-5.625 14.875 -5.625 14.875 -9 13 C-11.5 10.6875 -11.5 10.6875 -13 8 C-12.875 4.8125 -12.875 4.8125 -12 2 C-10 0 -10 0 -8.25 -0.6875 C-5.15999806 -1.11666694 -3.01886795 -0.84528303 0 0 Z " fill="#000000" transform="translate(910,743)"/>
<path d="M0 0 C0.33 0 0.66 0 1 0 C0.88487847 1.72985242 0.75744323 3.45888751 0.625 5.1875 C0.52058594 6.63189453 0.52058594 6.63189453 0.4140625 8.10546875 C-0.00215853 11.01508938 -0.79874096 13.32890774 -2 16 C-2.58984375 14.390625 -2.58984375 14.390625 -3 12 C-2.44140625 8.984375 -2.44140625 8.984375 -1.5625 5.75 C-1.27503906 4.67234375 -0.98757813 3.5946875 -0.69140625 2.484375 C-0.46324219 1.66453125 -0.23507812 0.8446875 0 0 Z " fill="#000000" transform="translate(551,762)"/>
<path d="M0 0 C1.88104931 2.82157396 2.51525415 4.46539551 3.296875 7.67993164 C3.53051758 8.62844498 3.76416016 9.57695831 4.00488281 10.55421448 C4.25077148 11.57917526 4.49666016 12.60413605 4.75 13.66015625 C5.0087793 14.71980087 5.26755859 15.7794455 5.53417969 16.87120056 C6.08156984 19.11747491 6.62608972 21.36445036 7.16796875 23.61206055 C7.99122459 27.0261083 8.82291238 30.43801008 9.65625 33.84960938 C10.18800087 36.0363366 10.71926612 38.22318197 11.25 40.41015625 C11.49588867 41.42094742 11.74177734 42.43173859 11.99511719 43.47315979 C16.14686136 60.71998826 16.14686136 60.71998826 16 67 C14.07972493 63.61517858 13.29123411 60.32635808 12.484375 56.53125 C12.2054541 55.24710205 11.9265332 53.9629541 11.63916016 52.63989258 C11.4940802 51.96374908 11.34900024 51.28760559 11.19952393 50.5909729 C9.03985776 40.54522636 6.76276473 30.60759757 3.625 20.8125 C1.405823 13.87526468 0.02984861 7.34275758 0 0 Z " fill="#000000" transform="translate(491,772)"/>
<path d="M0 0 C0.99 0 1.98 0 3 0 C2.34 1.98 1.68 3.96 1 6 C1.90242432 6.10546143 2.80484863 6.21092285 3.73461914 6.31958008 C7.1109047 6.71930349 10.48575529 7.12857678 13.86010742 7.54418945 C15.31538003 7.72148073 16.77111111 7.89505275 18.22729492 8.06469727 C20.33125866 8.31048405 22.43316095 8.57000172 24.53515625 8.83203125 C25.797229 8.98389893 27.05930176 9.1357666 28.35961914 9.29223633 C32.38145946 10.07416343 35.35809271 11.14018758 39 13 C40.4375 15.6875 40.4375 15.6875 41 18 C38.34027952 21.0753018 36.34661668 22.82342169 32.6875 24.6875 C22.37530551 28.08605751 11.39835162 28.32536797 0.6953125 27.38671875 C-2 27 -2 27 -4 26 C-4.2328984 18.46961835 -4.13590102 11.27788496 -2 4 C-1.36681772 2.65044362 -0.70923288 1.31118684 0 0 Z " fill="#000000" transform="translate(553,776)"/>
<path d="M0 0 C0.99 0.66 1.98 1.32 3 2 C5.19072964 7.43582114 5.1933632 13.35431251 5.0703125 19.12890625 C5.04710937 19.74636719 5.02390625 20.36382813 5 21 C-0.13194807 23.06760668 -4.61765936 23.34957311 -10.0625 23.3125 C-10.89869873 23.30831055 -11.73489746 23.30412109 -12.59643555 23.29980469 C-20.37741592 23.15943195 -27.93122679 22.30226521 -35.08984375 19.05078125 C-36.75 18.0625 -36.75 18.0625 -39 16 C-39.391875 15.360625 -39.78375 14.72125 -40.1875 14.0625 C-40.125625 13.381875 -40.06375 12.70125 -40 12 C-38 9.375 -38 9.375 -35 7 C-29.45524014 5.09288514 -23.85721875 4.2911769 -18.0625 3.5 C-13.13706959 2.82446998 -8.34576071 2.14682357 -3.55859375 0.78125 C-1.79708984 0.39453125 -1.79708984 0.39453125 0 0 Z " fill="#000000" transform="translate(485,781)"/>
<path d="M0 0 C0.33 0 0.66 0 1 0 C0.44487333 11.65766007 0.44487333 11.65766007 -1.5625 16.25 C-2.036875 17.1575 -2.51125 18.065 -3 19 C-3.33 18.01 -3.66 17.02 -4 16 C-3.43122375 13.22471489 -2.79911724 10.54203639 -2.0625 7.8125 C-1.86720703 7.06291016 -1.67191406 6.31332031 -1.47070312 5.54101562 C-0.98785625 3.69206541 -0.49489367 1.84576224 0 0 Z " fill="#000000" transform="translate(543,793)"/>
<path d="M0 0 C2.24975586 1.35058594 2.24975586 1.35058594 4 3 C4.226875 3.886875 4.45375 4.77375 4.6875 5.6875 C4 9 4 9 2.7421875 10.85595703 C-1.81333591 16.18353572 -6.62552211 19.71915262 -12.6875 23.1875 C-13.57236084 23.7043335 -14.45722168 24.22116699 -15.36889648 24.75366211 C-25.2084765 30.41162304 -34.95670688 34.30240168 -46 37 C-46.81339844 37.20625 -47.62679688 37.4125 -48.46484375 37.625 C-50.30786711 38.09142419 -52.15360414 38.54711045 -54 39 C-55.57849492 32.07890687 -56.96998032 25.12948009 -58.31640625 18.16015625 C-58.83780193 15.11773084 -58.83780193 15.11773084 -60 13 C-60.039992 11.00039988 -60.04346799 8.99952758 -60 7 C-59.28336182 7.17813232 -58.56672363 7.35626465 -57.82836914 7.53979492 C-54.85659716 8.02333313 -52.70600002 7.85121893 -49.74609375 7.36328125 C-48.73619385 7.19989258 -47.72629395 7.03650391 -46.68579102 6.86816406 C-45.61385498 6.68479492 -44.54191895 6.50142578 -43.4375 6.3125 C-42.33011475 6.13041992 -41.22272949 5.94833984 -40.08178711 5.76074219 C-32.25341475 4.45067657 -24.46428168 2.97350214 -16.72241211 1.2199707 C-11.25946096 0.04082693 -5.56763662 -0.87349631 0 0 Z " fill="#000000" transform="translate(396,794)"/>
<path d="M0 0 C4.88721337 -0.09709695 9.23150476 0.36651333 13.984375 1.515625 C22.58179156 3.52960545 31.29237398 4.27806507 40.07177734 5.11254883 C46.56782092 5.74721975 52.7744405 6.62108884 59.109375 8.203125 C59.439375 7.543125 59.769375 6.883125 60.109375 6.203125 C60.604375 6.698125 60.604375 6.698125 61.109375 7.203125 C60.5964542 17.8034883 58.47155772 29.11657685 55.109375 39.203125 C38.37353961 35.61544292 22.71763209 30.73650027 8.54296875 20.7421875 C4.1471876 17.51010227 0.07766267 14.46555588 -3.26953125 10.1015625 C-3.80449219 9.14507813 -4.33945312 8.18859375 -4.890625 7.203125 C-4.765625 3.890625 -4.765625 3.890625 -3.890625 1.203125 C-1.890625 0.203125 -1.890625 0.203125 0 0 Z " fill="#000000" transform="translate(641.890625,793.796875)"/>
<path d="M0 0 C3.0309332 0.35973197 5.07813813 0.92457756 7.78125 2.3046875 C13.85899437 6.1944439 18.79245007 11.41039162 23.20141602 17.07519531 C25.09375 20.3671875 25.09375 20.3671875 25.51611328 23.7512207 C25.48243652 24.96124756 25.44875977 26.17127441 25.4140625 27.41796875 C25.40365936 28.0762114 25.39325623 28.73445404 25.38253784 29.41264343 C25.34718283 31.50259489 25.28499648 33.59050572 25.21875 35.6796875 C24.80042257 48.16108521 24.80042257 48.16108521 27.09375 60.3671875 C27.36638672 61.38171997 27.36638672 61.38171997 27.64453125 62.41674805 C30.04497228 71.07005022 33.18049989 78.26812571 38.90625 85.2421875 C39.86750282 86.36766024 40.83209921 87.49029011 41.80078125 88.609375 C44.09375 91.3671875 44.09375 91.3671875 45.09375 94.3671875 C46.02574219 94.82931641 46.02574219 94.82931641 46.9765625 95.30078125 C47.67523438 95.65269531 48.37390625 96.00460937 49.09375 96.3671875 C50.5234375 98.21484375 50.5234375 98.21484375 51.96875 100.4296875 C55.6529379 105.43889035 60.06336089 108.23629563 65.38232422 111.27172852 C67.00387346 112.22126652 68.55510087 113.28848308 70.09375 114.3671875 C71.0078125 116.62890625 71.0078125 116.62890625 71.09375 118.3671875 C67.14895005 120.33958748 62.43575289 120.11213514 58.09375 120.3671875 C51.84116404 120.58891768 45.58387169 120.62360888 39.328125 120.68359375 C37.47407169 120.70454068 35.62002204 120.72581415 33.76597595 120.74739075 C27.79196341 120.81506405 21.81787663 120.87311955 15.84375 120.9296875 C14.83007481 120.93943855 13.81639961 120.94918961 12.77200699 120.95923615 C3.4774677 121.04853046 -5.81709195 121.13500278 -15.11174011 121.21221924 C-25.25056729 121.29654027 -35.38893888 121.39168704 -45.52729225 121.52146816 C-51.41870151 121.5959305 -57.31007963 121.65294222 -63.20181847 121.69381809 C-66.50756691 121.71720295 -69.81258108 121.75126423 -73.11804199 121.80178833 C-96.92280772 122.15446437 -96.92280772 122.15446437 -107.42797852 117.68579102 C-112.00852241 115.24864024 -114.84516646 112.66406738 -118.15625 108.6171875 C-120.35084634 104.54150858 -121.43134135 100.96516669 -121.90625 96.3671875 C-122.00227505 92.57419794 -121.75747537 89.06889783 -120.90625 85.3671875 C-119.97431017 83.19400023 -118.9910834 81.60514437 -117.47265625 79.796875 C-114.57963118 77.15635836 -111.60530239 75.61907768 -107.90625 74.3671875 C-100.07616326 72.31589232 -92.18562705 71.56249613 -84.1640625 72.78515625 C-80.65164308 73.46218782 -77.30179081 74.23534056 -73.90625 75.3671875 C-77.07384846 72.1465008 -80.31666731 69.04991776 -83.6640625 66.01708984 C-91.15020797 59.22080138 -97.51721643 53.12158222 -101.87109375 43.83984375 C-104.0021835 38.7493539 -105.01495103 34.00715318 -105.28125 28.4921875 C-105.15222326 23.83288866 -104.19032077 19.90172133 -102.31640625 15.63671875 C-100.75474067 13.12334562 -99.18085257 11.60808709 -96.84375 9.8046875 C-94.47263619 8.19815549 -92.65161149 7.282308 -89.90625 6.3671875 C-82.96664459 5.8333717 -76.08098681 5.60429277 -69.28125 7.23828125 C-61.86578613 9.95669048 -55.33941039 13.82666836 -48.90625 18.3671875 C-47.88144531 19.08261719 -46.85664063 19.79804687 -45.80078125 20.53515625 C-39.67597742 24.95566684 -34.58786971 29.45290728 -29.90625 35.3671875 C-28.92784622 36.49285104 -27.9487482 37.61791178 -26.96875 38.7421875 C-26.288125 39.6084375 -25.6075 40.4746875 -24.90625 41.3671875 C-24.90625 42.0271875 -24.90625 42.6871875 -24.90625 43.3671875 C-23.91625 43.3671875 -22.92625 43.3671875 -21.90625 43.3671875 C-21.9784375 42.77035156 -22.050625 42.17351563 -22.125 41.55859375 C-24.32813872 20.96536653 -24.32813872 20.96536653 -22.22265625 12.67578125 C-20.68320961 9.30943943 -18.66218142 6.94034993 -15.90625 4.4921875 C-10.41985028 0.6059877 -6.73154872 -0.14704839 0 0 Z M-45.90625 46.3671875 C-45.90625 47.0271875 -45.90625 47.6871875 -45.90625 48.3671875 C-45.24625 48.0371875 -44.58625 47.7071875 -43.90625 47.3671875 C-44.56625 47.0371875 -45.22625 46.7071875 -45.90625 46.3671875 Z M-43.90625 48.3671875 C-43.24625 49.0271875 -42.58625 49.6871875 -41.90625 50.3671875 C-41.90625 49.7071875 -41.90625 49.0471875 -41.90625 48.3671875 C-42.56625 48.3671875 -43.22625 48.3671875 -43.90625 48.3671875 Z " fill="#000000" transform="translate(210.90625,796.6328125)"/>
<path d="M0 0 C3.375 1.0625 3.375 1.0625 6 3 C8.27178581 5.17301251 10.29476799 7.35483589 12 10 C15.98421925 19.90559337 15.17337021 31.48220755 15 42 C15.495 41.01 15.495 41.01 16 40 C16.66 40 17.32 40 18 40 C18.20367188 39.31808594 18.40734375 38.63617187 18.6171875 37.93359375 C20.48131206 33.97891142 23.13163409 31.21177039 26.125 28.0625 C26.71539063 27.43714355 27.30578125 26.81178711 27.9140625 26.16748047 C31.98322801 21.92095824 36.01840867 18.15773002 41 15 C41.98613281 14.34515625 42.97226562 13.6903125 43.98828125 13.015625 C50.64299077 8.73033614 57.21218136 4.74895927 65 3 C69.07610934 2.55892847 72.92829066 2.5066396 77 3 C80.625 4.25 80.625 4.25 83 6 C84.0625 7.875 84.0625 7.875 85 10 C85.845625 10.804375 86.69125 11.60875 87.5625 12.4375 C88.7690625 13.7059375 88.7690625 13.7059375 90 15 C91.59719228 20.9439814 91.85312707 26.91987799 91 33 C88.10524071 42.2406072 82.50568934 50.40490908 76.23388672 57.67504883 C72.5266007 61.73679322 68.47201046 64.8608956 63.80078125 67.73046875 C63.20652344 68.14941406 62.61226562 68.56835938 62 69 C62 69.66 62 70.32 62 71 C62.51304687 70.855625 63.02609375 70.71125 63.5546875 70.5625 C69.41679968 69.1413819 75.11963289 68.75171532 81.125 68.6875 C81.8763623 68.67009766 82.62772461 68.65269531 83.40185547 68.63476562 C88.07368678 68.63885565 91.96318859 69.30235226 96.28564453 71.1105957 C99.49546383 72.77584374 101.36639666 75.11511474 103.58984375 77.890625 C105 80 105 80 106.4375 83.5 C107.0669026 87.41628283 107.60257527 91.0681964 107 95 C105.30604388 100.02411985 102.37155074 104.47919388 98.828125 108.3984375 C94.46951499 112.21687789 89.25798942 114.25551241 83.81539917 116.05000305 C77.08114738 117.68605737 70.08140243 117.26976344 63.19580078 117.24291992 C61.59510216 117.24399412 59.99440392 117.24593483 58.39370728 117.24867249 C54.06303044 117.25350283 49.73245731 117.24588699 45.401793 117.23571944 C40.85810378 117.22690448 36.31441747 117.22869708 31.77072144 117.2290802 C24.13961056 117.22814481 16.50853954 117.21947913 8.87744141 117.20581055 C0.07288615 117.19009768 -8.73162546 117.18481216 -17.53619373 117.1855461 C-26.93240262 117.18622341 -36.32859484 117.17927073 -45.72479868 117.1700995 C-48.42156317 117.16797515 -51.11832493 117.16725926 -53.81509018 117.16686058 C-58.06522066 117.1658505 -62.31531499 117.15969993 -66.5654335 117.14969444 C-68.11896798 117.14679201 -69.67250662 117.14553946 -71.2260437 117.14612198 C-90.15980799 117.15053208 -90.15980799 117.15053208 -95 116 C-95.33 115.34 -95.66 114.68 -96 114 C-92.9566704 110.73719952 -89.72386614 108.32344198 -86 105.875 C-84.96875 105.19179688 -83.9375 104.50859375 -82.875 103.8046875 C-80.61581575 102.38655826 -78.41288616 101.12524018 -76 100 C-76 99.01 -76 98.02 -76 97 C-74.515 96.01 -74.515 96.01 -73 95 C-72.505 93.515 -72.505 93.515 -72 92 C-71.34 92 -70.68 92 -70 92 C-69.773125 91.484375 -69.54625 90.96875 -69.3125 90.4375 C-68 88 -68 88 -65.5625 84.875 C-62.44938284 80.56943153 -61.32046678 76.09029681 -60 71 C-59.29781852 68.47744614 -58.5892731 65.95665675 -57.875 63.4375 C-57.54242187 62.23996094 -57.20984375 61.04242187 -56.8671875 59.80859375 C-56.43792969 58.41833984 -56.43792969 58.41833984 -56 57 C-55.67 56.67 -55.34 56.34 -55 56 C-54.63239269 53.67182036 -54.29758419 51.3381615 -54 49 C-50.35220773 50.76862656 -47.99272428 52.97655624 -45.375 56 C-44.80523438 56.680625 -44.23546875 57.36125 -43.6484375 58.0625 C-42.16857664 59.80186253 -40.623832 61.39716827 -39 63 C-38.96132813 61.02193359 -38.96132813 61.02193359 -38.921875 59.00390625 C-38.53506764 45.14244392 -37.34576855 32.02616879 -31.62353516 19.24707031 C-28.87024581 13.54349831 -25.69104355 8.71081553 -20.953125 4.48828125 C-14.4389416 -0.4755265 -7.9163956 -0.78391086 0 0 Z M42 40 C42 40.33 42 40.66 42 41 C43.65 41 45.3 41 47 41 C47 40.67 47 40.34 47 40 C45.35 40 43.7 40 42 40 Z M35 44 C35 44.99 35 45.98 35 47 C35.66 46.34 36.32 45.68 37 45 C36.34 44.67 35.68 44.34 35 44 Z M47 46 C46.67 46.66 46.34 47.32 46 48 C46.66 48 47.32 48 48 48 C47.67 47.34 47.34 46.68 47 46 Z M32 47 C32.33 47.66 32.66 48.32 33 49 C33.33 48.34 33.66 47.68 34 47 C33.34 47 32.68 47 32 47 Z M30 49 C28.37485532 50.45833358 28.37485532 50.45833358 27 52 C27.99 52 28.98 52 30 52 C30.66 51.01 31.32 50.02 32 49 C31.34 49 30.68 49 30 49 Z M-11 50 C-11.82022612 52.35171843 -12.6312654 54.7059851 -13.4375 57.0625 C-13.66759766 57.71927734 -13.89769531 58.37605469 -14.13476562 59.05273438 C-15.60434128 63.37626855 -16.48646211 67.46079726 -17 72 C-14.07003641 71.37215066 -11.48244217 70.71202908 -9 69 C-8.18828772 66.44480079 -8.18828772 66.44480079 -8 64 C-9.32 63.34 -10.64 62.68 -12 62 C-11.34 58.04 -10.68 54.08 -10 50 C-10.33 50 -10.66 50 -11 50 Z M42 50 C42 50.66 42 51.32 42 52 C41.01 52.33 40.02 52.66 39 53 C39.33 53.66 39.66 54.32 40 55 C43.795878 56.5183512 47.9877022 56.06687163 52 56 C52 54.68 52 53.36 52 52 C50.906875 51.855625 49.81375 51.71125 48.6875 51.5625 C45 51 45 51 42 50 Z M13 66 C12.67 66.66 12.34 67.32 12 68 C12.66 68 13.32 68 14 68 C13.67 67.34 13.34 66.68 13 66 Z M9 69 C8.67 70.32 8.34 71.64 8 73 C8.99 72.01 9.98 71.02 11 70 C10.34 69.67 9.68 69.34 9 69 Z M-3 85 C-2.67 85.66 -2.34 86.32 -2 87 C-1.67 86.34 -1.34 85.68 -1 85 C-1.66 85 -2.32 85 -3 85 Z M-6 88 C-7.67662714 89.84659471 -7.67662714 89.84659471 -9 92 C-9 92.66 -9 93.32 -9 94 C-9.66 94 -10.32 94 -11 94 C-11.33 95.65 -11.66 97.3 -12 99 C-7.66012875 94.78884683 -7.66012875 94.78884683 -4 90 C-4 89.34 -4 88.68 -4 88 C-4.66 88 -5.32 88 -6 88 Z M14 92 C14 92.66 14 93.32 14 94 C12.68 94 11.36 94 10 94 C10 94.99 10 95.98 10 97 C8.68 97 7.36 97 6 97 C6 97.66 6 98.32 6 99 C5.195625 99.226875 4.39125 99.45375 3.5625 99.6875 C2.716875 100.120625 1.87125 100.55375 1 101 C0.10613836 103.54775306 0.10613836 103.54775306 0 106 C3.43927579 104.7580393 6.25207819 103.44259716 9 101 C9 100.34 9 99.68 9 99 C9.5775 98.731875 10.155 98.46375 10.75 98.1875 C13.05550043 96.97070811 15.02056192 95.69666121 17 94 C17 93.34 17 92.68 17 92 C16.01 92 15.02 92 14 92 Z M70.75 94 C70.1725 94.33 69.595 94.66 69 95 C69.99 95.33 70.98 95.66 72 96 C74.63804589 95.60602665 74.63804589 95.60602665 77 95 C77 94.34 77 93.68 77 93 C73.19883862 92.72924102 73.19883862 92.72924102 70.75 94 Z M68 97 C68 97.33 68 97.66 68 98 C70.64 98 73.28 98 76 98 C76 97.67 76 97.34 76 97 C73.36 97 70.72 97 68 97 Z " fill="#000000" transform="translate(852,800)"/>
<path d="M0 0 C1.0828125 1.11375 1.0828125 1.11375 2.1875 2.25 C4.90711047 5.01267269 4.90711047 5.01267269 7.8125 7.1875 C8.534375 7.785625 9.25625 8.38375 10 9 C10 9.66 10 10.32 10 11 C7.8125 10.375 7.8125 10.375 5 9 C3.00549486 7.1186965 1.61470508 5.26058711 0 3 C0 2.01 0 1.02 0 0 Z " fill="#000000" transform="translate(279,808)"/>
<path d="M0 0 C0.99 0.33 1.98 0.66 3 1 C2.67 1.66 2.34 2.32 2 3 C1.34 3 0.68 3 0 3 C-0.33 3.66 -0.66 4.32 -1 5 C-2.32 4.67 -3.64 4.34 -5 4 C-2.6875 1.9375 -2.6875 1.9375 0 0 Z " fill="#000000" transform="translate(787,827)"/>
<path d="M0 0 C0.33 0.99 0.66 1.98 1 3 C1.67283916 4.73074935 2.34570693 6.46148759 3.01879883 8.19213867 C6.89803425 18.24999022 9.98219291 28.39152908 12 39 C12.66 39 13.32 39 14 39 C14 41.31 14 43.62 14 46 C12 44 12 44 10.66796875 40.8671875 C10.16745977 39.53908252 9.67444763 38.20813694 9.1875 36.875 C8.92614258 36.16867432 8.66478516 35.46234863 8.39550781 34.73461914 C5.65985404 27.23975678 3.27645842 19.645931 1 12 C0.61585938 10.7521875 0.23171875 9.504375 -0.1640625 8.21875 C-1 5 -1 5 -0.625 2.0625 C-0.41875 1.381875 -0.2125 0.70125 0 0 Z " fill="#000000" transform="translate(335,829)"/>
<path d="M0 0 C0.33 0 0.66 0 1 0 C1.42765417 6.41481258 -0.14256832 11.88595404 -2 18 C-2.33 18 -2.66 18 -3 18 C-2.51679152 11.7945858 -1.66681876 6.00054754 0 0 Z " fill="#000000" transform="translate(534,830)"/>
<path d="M0 0 C0.33 0.66 0.66 1.32 1 2 C-1.23429171 4.76871883 -3.49873422 7.46772679 -6 10 C-8.9375 11.5 -8.9375 11.5 -11 12 C-10.67 11.01 -10.34 10.02 -10 9 C-8.22265625 7.5 -8.22265625 7.5 -6.0625 6 C-3.2730396 4.05598404 -1.93215117 2.89822675 0 0 Z " fill="#000000" transform="translate(788,833)"/>
<path d="M0 0 C2.40625 0.23046875 2.40625 0.23046875 5 1 C7.887214 3.23269727 9.94899089 5.99623379 12 9 C15.84058761 16.25780336 18.32894094 23.81113432 19 32 C19.19752158 38.33394703 19.11816065 44.66527629 19 51 C18.67 51 18.34 51 18 51 C17.34 44.4 16.68 37.8 16 31 C15.34 31 14.68 31 14 31 C14.2475 32.4540625 14.2475 32.4540625 14.5 33.9375 C15.25270611 39.56594418 15.63090819 44.58999051 14.17578125 50.1484375 C13.4755945 52.38174691 12.75419355 54.60851612 12.01171875 56.828125 C11.11509178 59.63917172 10.47698589 62.35429793 9.9375 65.25 C9.628125 66.4875 9.31875 67.725 9 69 C5.43954823 70.18681726 2.56191663 70.09689832 -1.1875 70.0625 C-3.09595703 70.04896484 -3.09595703 70.04896484 -5.04296875 70.03515625 C-6.01878906 70.02355469 -6.99460937 70.01195312 -8 70 C-8 69.67 -8 69.34 -8 69 C-3.05 68.67 1.9 68.34 7 68 C10.39862018 55.11356514 11.30967277 42.21880887 9.53125 28.96484375 C8.05402033 21.02473425 5.25259461 13.87724284 1 7 C0.1646875 6.18595703 0.1646875 6.18595703 -0.6875 5.35546875 C-1.120625 4.90816406 -1.55375 4.46085938 -2 4 C-2 3.01 -2 2.02 -2 1 C-1.34 0.67 -0.68 0.34 0 0 Z M2 3 C2.85710433 6.42841732 3.63983278 9.41472827 5.5 12.4375 C5.995 12.953125 6.49 13.46875 7 14 C7.66 14 8.32 14 9 14 C9.12375 15.19625 9.2475 16.3925 9.375 17.625 C9.82325054 21.27596813 10.70446837 24.54524899 12 28 C12.66 27.01 13.32 26.02 14 25 C13.1941458 18.25097108 9.67369046 12.04515962 6.5 6.15234375 C5.7575 5.08693359 5.7575 5.08693359 5 4 C4.01 3.67 3.02 3.34 2 3 Z " fill="#000000" transform="translate(453,849)"/>
<path d="M0 0 C2.5625 0.25 2.5625 0.25 5 1 C5.33 1.66 5.66 2.32 6 3 C4.83189623 4.91363771 3.58711019 6.780591 2.3125 8.625 C-2.51474367 15.99753667 -4.43738288 23.35704996 -6 32 C-7.41717196 41.65215125 -7.46901523 50.0889043 -5.125 59.5625 C-4.95137939 60.26568359 -4.77775879 60.96886719 -4.59887695 61.69335938 C-4.12641033 63.47934867 -3.56861992 65.24225888 -3 67 C-2.34 67.66 -1.68 68.32 -1 69 C-2.75 68.75 -2.75 68.75 -5 68 C-7.25 65.9375 -7.25 65.9375 -9 64 C-9.99 64.99 -10.98 65.98 -12 67 C-15.28775948 57.60640148 -16.85817073 49.01194983 -16.18457031 39.00244141 C-15.24628963 28.82284065 -12.75553903 19.07271832 -8 10 C-5.63361922 6.34551539 -3.07691472 3.07691472 0 0 Z M-11 28 C-10 30 -10 30 -10 30 Z M-12 30 C-12.33 31.32 -12.66 32.64 -13 34 C-11.515 34.99 -11.515 34.99 -10 36 C-10 34.35 -10 32.7 -10 31 C-10.66 30.67 -11.32 30.34 -12 30 Z " fill="#000000" transform="translate(583,849)"/>
<path d="M0 0 C2.1875 0.3125 2.1875 0.3125 4 1 C4.33 2.32 4.66 3.64 5 5 C4.01 4.67 3.02 4.34 2 4 C2.44753731 9.2997839 3.15579033 13.97965145 5 19 C7.13986977 25.38509528 8.56862811 31.67561495 9.5703125 38.3359375 C9.93637823 40.60554502 10.40098928 42.78260943 11 45 C11.99 45 12.98 45 14 45 C14.33 47.97 14.66 50.94 15 54 C10.59155093 49.59155093 8.32492595 44.27129384 5.96582031 38.57275391 C1.7658415 27.38484271 -2.18220979 14.97577531 -3 3 C-2.608125 2.319375 -2.21625 1.63875 -1.8125 0.9375 C-1.214375 0.628125 -0.61625 0.31875 0 0 Z " fill="#000000" transform="translate(408,863)"/>
<path d="M0 0 C2.125 0.375 2.125 0.375 4 1 C4.58081055 3.13598633 4.58081055 3.13598633 5 6 C4.53442383 8.7956543 4.53442383 8.7956543 3.70703125 11.82421875 C3.40603516 12.93603516 3.10503906 14.04785156 2.79492188 15.19335938 C2.47072266 16.34642578 2.14652344 17.49949219 1.8125 18.6875 C1.50763672 19.82123047 1.20277344 20.95496094 0.88867188 22.12304688 C-0.98815369 28.94965557 -3.19787947 35.4974185 -6 42 C-6.99 41.34 -7.98 40.68 -9 40 C-9.495 38.515 -9.495 38.515 -10 37 C-10.99 37.66 -11.98 38.32 -13 39 C-12.35253671 35.52134924 -11.51036455 32.18011454 -10.4765625 28.796875 C-10.1775 27.81589844 -9.8784375 26.83492187 -9.5703125 25.82421875 C-9.25835938 24.80972656 -8.94640625 23.79523437 -8.625 22.75 C-8.16867187 21.25146484 -8.16867187 21.25146484 -7.703125 19.72265625 C-6.81270864 16.81167969 -5.9094756 13.905073 -5 11 C-4.72768555 10.11892578 -4.45537109 9.23785156 -4.17480469 8.33007812 C-3.91860352 7.52505859 -3.66240234 6.72003906 -3.3984375 5.890625 C-3.06465088 4.83149902 -3.06465088 4.83149902 -2.72412109 3.75097656 C-2 2 -2 2 0 0 Z M-3 16 C-3.99 16.495 -3.99 16.495 -5 17 C-5.68931344 19.34907875 -5.68931344 19.34907875 -6.125 22.0625 C-6.29257812 22.98160156 -6.46015625 23.90070312 -6.6328125 24.84765625 C-6.75398437 25.55792969 -6.87515625 26.26820313 -7 27 C-6.34 27 -5.68 27 -5 27 C-4.690625 26.21625 -4.38125 25.4325 -4.0625 24.625 C-3 22 -3 22 -2 20 C-2 18.68 -2 17.36 -2 16 C-2.33 16 -2.66 16 -3 16 Z " fill="#000000" transform="translate(630,863)"/>
<path d="M0 0 C0.33 0 0.66 0 1 0 C1.05945801 0.8521106 1.05945801 0.8521106 1.12011719 1.72143555 C1.87848568 12.08405919 2.65310922 21.80095134 6.29296875 31.6015625 C6.52628906 32.39304687 6.75960937 33.18453125 7 34 C6.67 34.99 6.34 35.98 6 37 C5.18395001 35.0848421 4.37229368 33.16781166 3.5625 31.25 C3.11003906 30.18265625 2.65757812 29.1153125 2.19140625 28.015625 C0.544384 23.84676868 -0.12500758 20.50124272 -0.09765625 16.015625 C-0.09443359 15.08105469 -0.09121094 14.14648438 -0.08789062 13.18359375 C-0.07951172 12.21550781 -0.07113281 11.24742187 -0.0625 10.25 C-0.05798828 9.26644531 -0.05347656 8.28289063 -0.04882812 7.26953125 C-0.03706483 4.84629209 -0.02062684 2.42317727 0 0 Z " fill="#000000" transform="translate(528,864)"/>
<path d="M0 0 C2.25935747 3.38903621 3.32772088 6.77253086 4.5 10.625 C4.72067139 11.33978516 4.94134277 12.05457031 5.16870117 12.79101562 C6.69881987 17.81960684 7.98633828 22.83954032 9 28 C7 26 7 26 5.52734375 22.40234375 C4.98855294 20.91724095 4.45904763 19.42874577 3.9375 17.9375 C3.66728027 17.17123291 3.39706055 16.40496582 3.11865234 15.61547852 C1.32942292 10.37717897 0.20216445 5.55952243 0 0 Z " fill="#000000" transform="translate(414,874)"/>
<path d="M0 0 C3.33333333 3.33333333 6.66666667 6.66666667 10 10 C7.1875 10.25 7.1875 10.25 4 10 C2.1875 8.375 2.1875 8.375 1 6 C0.3125 2.75 0.3125 2.75 0 0 Z " fill="#000000" transform="translate(543,898)"/>
<path d="M0 0 C4.97209562 1.76429199 9.43438061 4.3939166 14 7 C13.01 7.33 12.02 7.66 11 8 C8.80859375 7.109375 8.80859375 7.109375 6.4375 5.75 C5.65246094 5.31171875 4.86742187 4.8734375 4.05859375 4.421875 C2 3 2 3 0 0 Z " fill="#000000" transform="translate(377,902)"/>
<path d="M0 0 C0.66 0 1.32 0 2 0 C1.43359375 2.78515625 1.43359375 2.78515625 0 6 C-2.40696397 7.47639054 -4.34783674 8.46081204 -6.9375 9.4375 C-7.88786133 9.8387207 -7.88786133 9.8387207 -8.85742188 10.24804688 C-10.53724676 10.92456941 -12.26812313 11.4707582 -14 12 C-14.99 11.67 -15.98 11.34 -17 11 C-16.27554687 10.62488281 -15.55109375 10.24976563 -14.8046875 9.86328125 C-9.33957901 6.97041716 -4.65015986 4.05398552 0 0 Z " fill="#000000" transform="translate(492,903)"/>
<path d="M0 0 C0.33 0.99 0.66 1.98 1 3 C0.00390625 5.69921875 0.00390625 5.69921875 -1.4375 8.6875 C-1.91058594 9.68136719 -2.38367188 10.67523437 -2.87109375 11.69921875 C-3.42990234 12.83810547 -3.42990234 12.83810547 -4 14 C-4.33 13.01 -4.66 12.02 -5 11 C-4.00390625 8.30078125 -4.00390625 8.30078125 -2.5625 5.3125 C-2.08941406 4.31863281 -1.61632812 3.32476563 -1.12890625 2.30078125 C-0.75636719 1.54152344 -0.38382813 0.78226563 0 0 Z " fill="#000000" transform="translate(615,904)"/>
<path d="M0 0 C0.66 0 1.32 0 2 0 C1.67 0.99 1.34 1.98 1 3 C-1.3984375 4.421875 -1.3984375 4.421875 -4.375 5.75 C-5.35210938 6.19859375 -6.32921875 6.6471875 -7.3359375 7.109375 C-8.21507812 7.40328125 -9.09421875 7.6971875 -10 8 C-10.99 7.67 -11.98 7.34 -13 7 C-10.87767021 5.82823482 -8.75242209 4.66245215 -6.625 3.5 C-5.72007812 2.99919922 -5.72007812 2.99919922 -4.796875 2.48828125 C-3.21486617 1.62696533 -1.60862683 0.81051635 0 0 Z " fill="#000000" transform="translate(660,904)"/>
<path d="M0 0 C-0.33 0.66 -0.66 1.32 -1 2 C-3.25 3.125 -3.25 3.125 -6 4 C-8.8125 4.125 -8.8125 4.125 -11 4 C-10.67 3.34 -10.34 2.68 -10 2 C-6.68902394 -0.20731737 -3.90590763 -0.17754126 0 0 Z " fill="#000000" transform="translate(375,908)"/>
</svg>
